SplineFontDB: 3.0
FontName: granapadano
FullName: granapadano
FamilyName: granapadano
Weight: Medium
Copyright: LilyPond's pretty-but-neat music font, adapted to the Gregorio Project.\nCopyright (C) 2002-2006 Juergen Reuter <reuter@ipd.uka.de>\nCopyright (C) 2007-2015 The Gregorio Project (see CONTRIBUTORS.md)\nThis file is part of Gregorio.\n\n<<GPLV3>>
UComments: "2007-4-12: Created." 
Version: 1.0
ItalicAngle: 0
UnderlinePosition: -204
UnderlineWidth: 102
Ascent: 800
Descent: 200
LayerCount: 2
Layer: 0 0 "Back"  1
Layer: 1 0 "Fore"  0
XUID: [1021 341 828717519 1678204]
OS2Version: 0
OS2_WeightWidthSlopeOnly: 0
OS2_UseTypoMetrics: 1
CreationTime: 1176402534
ModificationTime: 1465846469
OS2TypoAscent: 0
OS2TypoAOffset: 1
OS2TypoDescent: 0
OS2TypoDOffset: 1
OS2TypoLinegap: 0
OS2WinAscent: 0
OS2WinAOffset: 1
OS2WinDescent: 0
OS2WinDOffset: 1
HheadAscent: 0
HheadAOffset: 1
HheadDescent: 0
HheadDOffset: 1
OS2Vendor: 'PfEd'
MarkAttachClasses: 1
DEI: 91125
Encoding: Custom
UnicodeInterp: none
NameList: Adobe Glyph List
DisplaySize: -96
AntiAlias: 1
FitToEm: 0
WinInfo: 0 32 8
BeginPrivate: 0
EndPrivate
Grid
139 1300 m 0
 139 -700 l 0
-1000 -27.0597 m 0
 2000 -27.0597 l 0
-1000 -158.802 m 0
 2000 -158.802 l 0
170 1300 m 0
 170 -700 l 0
22 1300 m 0
 22 -700 l 0
EndSplineSet
TeXData: 1 0 0 346030 173015 115343 0 1048576 115343 783286 444596 497025 792723 393216 433062 380633 303038 157286 324010 404750 52429 2506097 1059062 262144
BeginChars: 191 191

StartChar: Accentus
Encoding: 0 -1 0
Width: 99
VWidth: 1594
Flags: HW
HStem: -652.764 23.94 -150.024 23.94 352.716 23.94 855.456 23.94
LayerCount: 2
Fore
SplineSet
22.3555 -69.8779 m 4
 9.58691 -69.8779 0.0117188 -57.1094 0.0117188 -45.9365 c 4
 0.0117188 -42.7461 0.0117188 -37.958 3.2041 -34.7656 c 5
 46.2949 56.207 l 6
 51.083 64.1865 60.6602 70.5713 71.8311 70.5713 c 4
 87.792 70.5713 98.9629 56.207 98.9629 41.8418 c 4
 98.9629 37.0547 98.9629 32.2666 95.7705 29.0742 c 5
 43.1035 -57.1094 l 5
 39.9111 -65.0898 31.9316 -69.8779 22.3555 -69.8779 c 4
EndSplineSet
Validated: 1
EndChar

StartChar: AccentusReversus
Encoding: 1 -1 1
Width: 99
VWidth: 1594
Flags: HW
HStem: -652.764 23.94 -150.024 23.94 352.716 23.94 855.456 23.94
LayerCount: 2
Fore
SplineSet
0.0595703 46.2236 m 4
 0.0595703 57.3965 9.63477 70.165 22.4033 70.165 c 4
 31.9795 70.165 39.959 65.377 43.1514 57.3965 c 5
 95.8184 -28.7871 l 5
 99.0107 -31.9795 99.0107 -36.7676 99.0107 -41.5547 c 4
 99.0107 -55.9199 87.8398 -70.2842 71.8789 -70.2842 c 4
 60.708 -70.2842 51.1309 -63.8994 46.3428 -55.9199 c 6
 3.25195 35.0527 l 5
 0.0595703 38.2451 0.0595703 43.0332 0.0595703 46.2236 c 4
EndSplineSet
Validated: 1
EndChar

StartChar: AscendensOriscus
Encoding: 2 -1 2
Width: 192
Flags: HW
HStem: -473.822 17.1 -114.722 17.1 244.378 17.1 603.478 17.1
LayerCount: 2
Fore
SplineSet
14.833 -42.0859 m 0
 3.43359 -42.0859 0.0136719 19.4736 0.0136719 37.7139 c 0
 0.0136719 55.9541 1.15332 83.3135 5.71387 100.414 c 0
 12.5537 127.774 33.0732 148.294 59.293 148.294 c 0
 90.0732 148.294 109.453 115.234 140.233 115.234 c 0
 174.434 115.234 166.453 149.435 176.714 149.435 c 0
 188.113 149.435 192 87.8652 192 69.625 c 4
 192 51.3848 189.254 24.0342 185.833 6.93359 c 0
 178.993 -20.4258 157.333 -40.9463 132.254 -40.9463 c 0
 100.333 -40.9463 82.0938 -7.88574 51.3135 -7.88574 c 0
 17.1133 -7.88574 23.9531 -42.0859 14.833 -42.0859 c 0
EndSplineSet
EndChar

StartChar: AscendensOriscus#Cavum
Encoding: 3 -1 3
Width: 192
Flags: W
HStem: -305.023 11.628 -60.8351 11.628 183.353 11.628 427.541 11.628
LayerCount: 2
Fore
SplineSet
40.8086 17.5576 m 4
 33.0566 17.5576 30.7314 30.418 30.7314 42.8213 c 4
 30.7314 55.2246 31.5068 73.8291 34.6074 85.457 c 4
 39.2588 104.062 49.3926 120.545 67.041 118.016 c 4
 87.9717 115.016 98.667 96.1553 123.081 91.5352 c 4
 136.436 89.0078 143.91 89.792 150.888 89.792 c 4
 158.639 89.792 161.282 76.9238 161.282 64.5205 c 4
 161.282 52.1172 159.415 33.5195 157.089 21.8906 c 4
 152.438 3.28613 141.549 -13.0029 124.655 -10.668 c 4
 102.948 -7.66797 93.0293 11.1934 68.6152 15.8135 c 4
 55.2607 18.3408 47.0107 17.5576 40.8086 17.5576 c 4
EndSplineSet
EndChar

StartChar: AscendensOriscusLineBL
Encoding: 4 -1 4
Width: 192
Flags: HW
HStem: -473.822 17.1 -114.722 17.1 244.378 17.1 603.478 17.1
LayerCount: 2
Fore
SplineSet
177.181 151.148 m 0
 188.58 151.148 192 89.5889 192 71.3486 c 0
 192 53.1084 190.86 25.749 186.3 8.64844 c 0
 179.46 -18.7119 158.94 -39.2314 132.721 -39.2314 c 0
 101.94 -39.2314 82.5586 -5.79199 51.7803 -6.17188 c 0
 24.4424 -6.50879 24.8711 -36.6523 22.0225 -42.0791 c 5
 0.0136719 -42.0859 l 5
 -2.8252 -23.4824 0.0136719 29.5859 0.0136719 39.4375 c 0
 0.0136719 57.6777 2.75977 85.0283 6.18066 102.129 c 0
 13.0205 129.488 34.6807 150.009 59.7598 150.009 c 0
 91.6807 150.009 109.92 116.948 140.7 116.948 c 0
 174.9 116.948 168.061 151.148 177.181 151.148 c 0
EndSplineSet
EndChar

StartChar: AscendensOriscusLineBLBR
Encoding: 5 -1 5
Width: 192
Flags: HW
HStem: -473.822 17.1 -114.722 17.1 244.378 17.1 603.478 17.1
LayerCount: 2
Fore
SplineSet
0.0101797 -58 m 1
 0.0136719 37.7139 l 2
 0.0146484 55.9541 1.15332 83.3135 5.71387 100.414 c 0
 12.5537 127.774 33.0732 148.294 59.293 148.294 c 0
 90.0732 148.294 109.453 115.234 140.233 115.234 c 0
 174.434 115.234 166.453 149.435 176.714 149.435 c 0
 188.113 149.435 192 87.8652 192 69.625 c 0
 192 -42 l 1
 170 -42 l 1
 170 -23.1459 l 1
 160.003 -34.142 146.695 -40.9463 132.254 -40.9463 c 0
 100.333 -40.9463 82.0938 -7.88574 51.3135 -7.88574 c 0
 31.2755 -7.88574 25 -19 22 -29 c 1
 22.0119 -58 l 1
 0.0101797 -58 l 1
EndSplineSet
EndChar

StartChar: AscendensOriscusLineBLTR
Encoding: 6 -1 6
Width: 192
Flags: HW
HStem: -473.822 17.1 -114.722 17.1 244.378 17.1 603.478 17.1
LayerCount: 2
Fore
SplineSet
59.293 148.294 m 0
 94.0936 148.294 106.217 114.814 140.233 115.234 c 4
 167.571 115.571 167.143 145.714 169.991 151.141 c 5
 182.571 150.857 179.714 151.141 192 151.141 c 5
 194.839 132.538 192 79.4765 192 69.625 c 2
 192 69.4825 l 1
 192 69.3486 l 2
 192 51.1084 190.86 23.749 186.3 6.64844 c 0
 179.46 -20.7119 158.94 -41.2314 132.721 -41.2314 c 0
 97.92 -41.2314 85.7993 -7.75199 51.7803 -8.17188 c 0
 24.4424 -8.50879 24.8711 -38.6592 22.0225 -44.0859 c 1
 9.44238 -43.8018 12.2998 -44.0859 0.0136719 -44.0859 c 1
 -2.8252 -25.4824 0.0136719 27.5859 0.0136719 37.4375 c 0
 0.0136719 37.4849 0.0137301 37.5325 0.0137301 37.58 c 0
 0.0137301 37.6249 0.0136719 37.6695 0.0136719 37.7139 c 0
 0.0136719 55.9541 1.15332 83.3135 5.71387 100.414 c 0
 12.5537 127.774 33.0732 148.294 59.293 148.294 c 0
EndSplineSet
Validated: 33
EndChar

StartChar: AscendensOriscusLineBR
Encoding: 7 -1 7
Width: 192
Flags: HW
HStem: -473.822 17.1 -114.722 17.1 244.378 17.1 603.478 17.1
LayerCount: 2
Fore
SplineSet
169.971 -23.1776 m 1
 159.977 -34.1551 146.681 -40.9463 132.254 -40.9463 c 0
 100.333 -40.9463 82.0938 -7.88574 51.3135 -7.88574 c 0
 17.1133 -7.88574 23.9531 -42.0859 14.833 -42.0859 c 0
 3.43359 -42.0859 0.0136719 19.4736 0.0136719 37.7139 c 0
 0.0136719 55.9541 1.15332 83.3135 5.71387 100.414 c 0
 12.5537 127.774 33.0732 148.294 59.293 148.294 c 0
 90.0732 148.294 109.453 115.234 140.233 115.234 c 0
 174.434 115.234 166.453 149.435 176.714 149.435 c 0
 188.113 149.435 192 87.8652 192 69.625 c 0
 192 -42 l 1
 170 -42 l 1
 169.971 -23.1776 l 1
EndSplineSet
EndChar

StartChar: AscendensOriscusLineTL
Encoding: 8 -1 8
Width: 192
Flags: W
HStem: -473.822 17.1 -114.722 17.1 244.378 17.1 603.478 17.1
LayerCount: 2
Fore
SplineSet
0.0136719 151.141 m 5
 22.0225 151.141 0.0136719 151.141 22.0225 151.141 c 5
 21.9791 131.36 l 1
 31.6889 141.846 44.5954 148.294 59.293 148.294 c 0
 90.0732 148.294 109.453 115.234 140.233 115.234 c 0
 174.434 115.234 166.453 149.435 176.714 149.435 c 0
 188.113 149.435 192 87.8652 192 69.625 c 0
 192 51.3848 189.254 24.0342 185.833 6.93359 c 0
 178.993 -20.4258 157.333 -40.9463 132.254 -40.9463 c 0
 100.333 -40.9463 82.0938 -7.88574 51.3135 -7.88574 c 0
 17.1133 -7.88574 23.9531 -42.0859 14.833 -42.0859 c 0
 3.43359 -42.0859 0.0136719 19.4736 0.0136719 37.7139 c 0
 0.0136719 151.141 l 5
EndSplineSet
EndChar

StartChar: AscendensOriscusLineTLBR
Encoding: 9 -1 9
Width: 192
Flags: HW
HStem: -473.822 17.1 -114.722 17.1 244.378 17.1 603.478 17.1
LayerCount: 2
Fore
SplineSet
0.0136719 151.141 m 5
 22.0225 151.141 0.0136719 151.141 22.0225 151.141 c 1
 22.0529 131.44 l 1
 31.7543 141.879 44.6326 148.294 59.293 148.294 c 0
 90.0732 148.294 109.453 115.234 140.233 115.234 c 0
 174.434 115.234 166.453 149.435 176.714 149.435 c 0
 188.113 149.435 192 87.8652 192 69.625 c 0
 192 -42 l 1
 170 -42 l 1
 169.971 -23.1776 l 1
 159.977 -34.1551 146.681 -40.9463 132.254 -40.9463 c 0
 100.333 -40.9463 82.0938 -7.88574 51.3135 -7.88574 c 0
 17.1133 -7.88574 23.9531 -42.0859 14.833 -42.0859 c 0
 3.43359 -42.0859 0.0136719 19.4736 0.0136719 37.7139 c 4
 0.0136719 151.141 l 5
EndSplineSet
EndChar

StartChar: AscendensOriscusLineTLTR
Encoding: 10 -1 10
Width: 192
Flags: HW
HStem: -473.822 17.1 -114.722 17.1 244.378 17.1 603.478 17.1
LayerCount: 2
Fore
SplineSet
0.0136719 151.141 m 1
 22.0225 151.141 0.0136719 151.141 22.0225 151.141 c 1
 22.0468 131.433 l 1
 31.7489 141.876 44.6295 148.294 59.293 148.294 c 0
 90.0732 148.294 109.455 114.854 140.233 115.234 c 0
 167.571 115.571 167.143 145.714 169.991 151.141 c 5
 192 151.148 l 5
 194.839 132.545 192 79.4765 192 69.625 c 0
 192 51.3848 189.254 24.0342 185.833 6.93359 c 0
 178.993 -20.4258 157.333 -40.9463 132.254 -40.9463 c 0
 100.333 -40.9463 82.0938 -7.88574 51.3135 -7.88574 c 0
 17.1133 -7.88574 23.9531 -42.0859 14.833 -42.0859 c 0
 3.43359 -42.0859 0.0136719 19.4736 0.0136719 37.7139 c 0
 0.0136719 151.141 l 1
EndSplineSet
EndChar

StartChar: AscendensOriscusLineTR
Encoding: 11 -1 11
Width: 192
Flags: HW
HStem: -473.822 17.1 -114.722 17.1 244.378 17.1 603.478 17.1
LayerCount: 2
Fore
SplineSet
14.833 -42.0859 m 0
 3.43359 -42.0859 0.0136719 19.4736 0.0136719 37.7139 c 0
 0.0136719 55.9541 1.15332 83.3135 5.71387 100.414 c 0
 12.5537 127.774 33.0732 148.294 59.293 148.294 c 0
 90.0732 148.294 109.455 114.854 140.233 115.234 c 0
 167.571 115.571 167.143 145.714 169.991 151.141 c 1
 182.571 150.857 179.714 151.143 192 151.148 c 1
 194.839 132.545 192 79.4765 192 69.625 c 0
 192 51.3848 189.254 24.0342 185.833 6.93359 c 0
 178.993 -20.4258 157.333 -40.9463 132.254 -40.9463 c 0
 100.333 -40.9463 82.0938 -7.88574 51.3135 -7.88574 c 0
 17.1133 -7.88574 23.9531 -42.0859 14.833 -42.0859 c 0
EndSplineSet
Validated: 33
EndChar

StartChar: AscendensPunctumInclinatum
Encoding: 12 -1 12
Width: 178
Flags: HW
HStem: -476.247 17.1 -117.147 17.1 241.953 17.1 601.053 17.1
LayerCount: 2
Fore
SplineSet
174.961 58.6895 m 2
 92.0322 -48.6465 l 2
 89.4395 -53.0371 84.7314 -54.9922 80.1826 -54.6738 c 0
 75.6338 -54.3564 71.2441 -51.7646 68.1504 -46.9766 c 2
 2.12207 70.6543 l 1
 0.00585938 73.0879 0.446289 76.4854 0.605469 78.7607 c 0
 0.764648 81.0352 1.00293 84.4473 3.43652 86.5625 c 1
 85.0088 194.114 l 2
 88.7383 198.426 93.4473 200.381 97.9961 200.062 c 0
 102.544 199.745 106.935 197.153 108.891 192.444 c 2
 176.074 74.6123 l 2
 177.054 72.2578 177.951 68.7666 177.792 66.4922 c 0
 177.634 64.2168 176.258 60.8848 174.961 58.6895 c 2
EndSplineSet
EndChar

StartChar: AscendensPunctumInclinatum#Cavum
Encoding: 13 -1 13
Width: 178
Flags: HW
HStem: -476.247 17.1 -117.147 17.1 241.953 17.1 601.053 17.1
LayerCount: 2
Fore
SplineSet
149.232 62.8906 m 2
 91.1826 -12.2441 l 2
 89.3672 -15.3174 86.0713 -16.6865 82.8877 -16.4639 c 0
 79.7031 -16.2412 76.6309 -14.4268 74.4648 -11.0752 c 2
 28.2461 71.2666 l 1
 26.7637 72.9697 27.0723 75.3477 27.1836 76.9404 c 0
 27.2949 78.5332 27.4609 80.9209 29.166 82.4023 c 1
 86.2656 157.688 l 2
 88.876 160.706 92.1729 162.075 95.3564 161.852 c 0
 98.54 161.63 101.614 159.815 102.983 156.519 c 2
 150.012 74.0371 l 2
 150.697 72.3887 151.325 69.9453 151.214 68.3525 c 0
 151.104 66.7598 150.14 64.4277 149.232 62.8906 c 2
EndSplineSet
EndChar

StartChar: AuctumMora
Encoding: 14 -1 14
Width: 71
VWidth: 2679
Flags: HW
HStem: -219.133 9 -30.1332 9 158.867 9 347.867 9
LayerCount: 2
Fore
SplineSet
35.5 47.75 m 4
 17.4814 47.75 -0.25 62.8789 -0.25 83.5 c 4
 -0.25 104.155 17.4727 119.25 35.5 119.25 c 4
 53.5186 119.25 71.25 104.121 71.25 83.5 c 4
 71.25 62.8447 53.5273 47.75 35.5 47.75 c 4
EndSplineSet
Validated: 1
EndChar

StartChar: auctusa1
Encoding: 15 -1 15
Width: 161
Flags: HW
HStem: -473.75 17.1 -114.65 17.1 244.45 17.1 603.55 17.1
LayerCount: 2
Fore
SplineSet
143.64 222.49 m 4x40
 152.76 222.49 161 214.46 161 206.479 c 6x40
 161 56 l 6
 161 2.41992 129.96 -49.9707 79.7998 -49.9707 c 4
 59.2803 -49.9707 13.6797 -44.2705 4.56055 -35.1504 c 4
 2.28027 -31.7305 0 -27.1699 0 -23.75 c 6
 0 152 l 5x80
 18.3125 152 0.9375 152 22 152 c 5
 22 141.812 22 148.875 22 141.792 c 5
 32 135 49.4831 133.569 79.7998 133.569 c 4
 111.72 133.569 127.68 170.05 127.68 206.529 c 4
 127.68 214.51 134.521 222.49 143.64 222.49 c 4x40
EndSplineSet
Validated: 1
EndChar

StartChar: auctusa1_op
Encoding: 16 -1 16
Width: 161
Flags: HW
HStem: -409 15 -94 15 221 15 536 15
LayerCount: 2
Fore
SplineSet
0 -23.75 m 2
 0 152 l 1x80
 18.3125 152 0.9375 152 22 152 c 1
 22 138.375 l 1
 33.25 133.875 49.4831 133.569 79.7998 133.569 c 0
 111.72 133.569 139 179.771 139 216.25 c 0
 138.875 356.372 l 1
 142.5 358.872 160.992 359.499 160.992 359.499 c 1
 161 56 l 2
 161 2.41992 129.96 -49.9707 79.7998 -49.9707 c 0
 59.2803 -49.9707 13.6797 -44.2705 4.56055 -35.1504 c 0
 2.28027 -31.7305 0 -27.1699 0 -23.75 c 2
EndSplineSet
Validated: 1
EndChar

StartChar: auctusa2
Encoding: 17 -1 17
Width: 161
Flags: HW
HStem: -473.75 17.1 -114.65 17.1 244.45 17.1 603.55 17.1
LayerCount: 2
Fore
SplineSet
143.64 218.011 m 0x40
 152.76 218.011 161 209.981 161 202 c 2x40
 161 51.5215 l 2
 161 -2.05957 129.96 -49.2207 79.7998 -49.2207 c 0
 65.7139 -49.2207 39.8096 -46.5352 22 -41.9004 c 1
 22 -49 22 -45.5 22 -49.5 c 1
 11.25 -49.75 10.5 -50 0 -49.75 c 1
 0 122.251 l 2x80
 0 131.371 7.98047 138.21 17.1006 138.21 c 0
 22.7998 138.21 42.1797 129.09 79.7998 129.09 c 0
 111.72 129.09 127.68 165.571 127.68 202.05 c 0
 127.68 210.031 134.521 218.011 143.64 218.011 c 0x40
EndSplineSet
Validated: 1
EndChar

StartChar: auctusa2_op
Encoding: 18 -1 18
Width: 161
Flags: HW
HStem: -409 15 -94 15 221 15 536 15
LayerCount: 2
Fore
SplineSet
17.1006 138.21 m 1
 38.125 137.5 49.4831 133.569 79.7998 133.569 c 0
 111.72 133.569 139 179.771 139 216.25 c 0
 138.875 356.372 l 1
 142.5 358.872 160.992 359.499 160.992 359.499 c 1
 161 56 l 2
 161 2.41992 129.96 -49.9707 79.7998 -49.9707 c 0
 65.681 -49.9707 39.688 -47.272 21.875 -42.6175 c 0
 22 -49.5 l 1
 11.25 -49.75 10.5 -50 0 -49.75 c 1
 0 122.251 l 1x80
 0 131.371 7.98047 138.21 17.1006 138.21 c 1
EndSplineSet
Validated: 1
EndChar

StartChar: auctusd1
Encoding: 19 -1 19
Width: 161
Flags: HW
HStem: -474.265 17.1 -115.165 17.1 243.935 17.1 603.035 17.1
LayerCount: 2
Fore
SplineSet
17.0967 -4.60059 m 4x40
 7.97656 -4.60059 -0.00390625 2.23926 -0.00390625 11.3594 c 6
 0 179 l 5
 22 179.001 l 5
 44.7998 185.841 56.9961 188.06 79.7959 188.06 c 4
 129.956 188.06 161 136.18 161 82.5996 c 6x80
 161 -67.8799 l 6
 161 -75.8604 152.756 -84.4014 143.636 -84.4014 c 4
 134.517 -84.4014 127.676 -76.4209 127.676 -68.4404 c 4
 127.676 -31.9609 111.716 4.51953 79.7959 4.51953 c 4
 42.1758 4.51953 22.7959 -4.60059 17.0967 -4.60059 c 4x40
EndSplineSet
Validated: 1
EndChar

StartChar: auctusd1_op
Encoding: 20 -1 20
Width: 161
Flags: HW
HStem: -409 15 -94 15 221 15 536 15
LayerCount: 2
Fore
SplineSet
-0.00390625 11.3594 m 6
 0 179 l 5
 22 179.001 l 1
 44.7998 185.841 56.9961 188.06 79.7959 188.06 c 0
 129.956 188.06 161 136.18 161 82.5996 c 2x80
 161 -67.8799 l 2
 160.992 -224.002 l 1
 160.992 -224.002 142.5 -223.375 138.875 -220.875 c 1
 139 -74.5 l 0
 139 -38.0205 111.716 4.51953 79.7959 4.51953 c 0
 42.1758 4.51953 22.7959 -4.60059 17.0967 -4.60059 c 0x40
 7.97656 -4.60059 -0.00390625 2.23926 -0.00390625 11.3594 c 6
EndSplineSet
Validated: 1
EndChar

StartChar: BarBrace
Encoding: 21 -1 21
Width: 591
VWidth: 2048
Flags: W
HStem: -409 15 -94 15 221 15 536 15
LayerCount: 2
Fore
SplineSet
0.0927734 690.474 m 0
 0.0927734 692.251 0.458984 694.4 1.2998 697 c 0
 13.2695 734 95.3994 899 295.1 899 c 0
 489 899 578.13 734 590.1 697 c 0
 590.941 694.4 591.307 692.25 591.307 690.474 c 0
 591.307 682.081 583.15 682 578.406 682 c 2
 578.13 682 l 2
 572.46 682 571.363 690.378 566.16 700 c 0
 511 802 402 872 294.899 872 c 0
 182.399 872 80.3994 802 25.2402 700 c 0
 20.0371 690.378 18.9395 682 13.2695 682 c 2
 12.9932 682 l 2
 8.25 682 0.0927734 682.081 0.0927734 690.474 c 0
EndSplineSet
Validated: 1
EndChar

StartChar: CClef
Encoding: 22 -1 22
Width: 143
VWidth: 1107
Flags: HW
HStem: -499.02 17.1 -139.92 17.1 219.18 17.1 578.28 17.1
LayerCount: 2
Fore
SplineSet
86.6406 291.006 m 0
 51.3008 291.006 20.5205 265.926 20.5205 234.006 c 0
 20.5205 202.086 51.3008 177.006 86.6406 177.006 c 0
 114.001 177.006 127.681 192.966 132.241 192.966 c 0
 140.221 192.966 143 125.74 143 107.5 c 0
 143 76.7197 139.081 26.5254 133.381 21.9658 c 0
 119.701 11.7061 103.741 6.00586 86.6406 6.00586 c 0
 53.5811 6.00586 9.12109 33.3662 2.28125 101.766 c 0
 1.14062 116.586 0.000976562 135.966 0.000976562 155.346 c 2
 0.000976562 312.666 l 2
 0.000976562 325.206 -9.11914 442.626 70.6807 460.866 c 0
 76.3809 462.006 82.0811 462.006 86.6406 462.006 c 0
 103.741 462.006 119.701 456.306 133.381 446.046 c 0
 142.501 439.206 143 361.64 143 360.5 c 4
 143 342.26 140.221 275.046 132.241 275.046 c 0
 127.681 275.046 114.001 291.006 86.6406 291.006 c 0
EndSplineSet
Validated: 33
EndChar

StartChar: CClefChange
Encoding: 23 -1 23
Width: 143
VWidth: 1107
Flags: W
HStem: -499.02 17.1 -139.92 17.1 219.18 17.1 578.28 17.1
LayerCount: 2
Fore
SplineSet
86.6406 291.006 m 0
 51.3008 291.006 20.5205 265.926 20.5205 234.006 c 0
 20.5205 202.086 51.3008 177.006 86.6406 177.006 c 0
 114.001 177.006 127.681 192.966 132.241 192.966 c 0
 140.221 192.966 143 125.74 143 107.5 c 0
 143 76.7197 139.081 26.5254 133.381 21.9658 c 0
 119.701 11.7061 103.741 6.00586 86.6406 6.00586 c 0
 53.5811 6.00586 9.12109 33.3662 2.28125 101.766 c 0
 1.14062 116.586 0.000976562 135.966 0.000976562 155.346 c 2
 0.000976562 312.666 l 2
 0.000976562 325.206 -9.11914 442.626 70.6807 460.866 c 0
 76.3809 462.006 82.0811 462.006 86.6406 462.006 c 0
 103.741 462.006 119.701 456.306 133.381 446.046 c 0
 142.501 439.206 143 361.64 143 360.5 c 4
 143 342.26 140.221 275.046 132.241 275.046 c 0
 127.681 275.046 114.001 291.006 86.6406 291.006 c 0
EndSplineSet
Validated: 33
EndChar

StartChar: Circulus
Encoding: 24 -1 24
Width: 124
VWidth: 1594
Flags: HW
HStem: -652.764 23.94 -150.024 23.94 352.716 23.94 855.456 23.94
LayerCount: 2
Fore
SplineSet
62 -33.5166 m 0
 79.5557 -33.5166 95.5166 -19.1514 95.5166 0 c 0
 95.5166 17.5557 81.1514 33.5166 62 33.5166 c 0
 44.4443 33.5166 28.4834 19.1514 28.4834 0 c 0
 28.4834 -17.5557 42.8486 -33.5166 62 -33.5166 c 0
62 62.2441 m 0
 95.5166 62.2441 124.244 36.708 124.244 0 c 0
 124.244 -33.5166 98.708 -62.2441 62 -62.2441 c 0
 28.4834 -62.2441 -0.244141 -36.708 -0.244141 0 c 0
 -0.244141 33.5166 25.292 62.2441 62 62.2441 c 0
EndSplineSet
Validated: 1
EndChar

StartChar: CurlyBrace
Encoding: 25 -1 25
Width: 1006
VWidth: 2048
Flags: W
HStem: 1276 15 961 15 646 15 331 15
LayerCount: 2
Fore
SplineSet
333.6 698 m 0
 252.4 698 200.6 717.6 129.2 717.6 c 0
 36.7998 717.6 17.2002 679.8 7.40039 679.8 c 0
 3.2002 679.8 0.400391 682.6 0.400391 686.8 c 0
 0.400391 693.8 59.2002 742.8 171.2 742.8 c 0
 256.6 742.8 309.8 721.8 384 721.8 c 0
 473.6 721.8 493.2 758.2 503 758.2 c 0
 511.4 758.2 533.8 721.8 622 721.8 c 0
 696.2 721.8 749.4 742.8 834.8 742.8 c 0
 948.2 742.8 1005.6 693.8 1005.6 686.8 c 0
 1005.6 682.6 1002.8 679.8 998.6 679.8 c 0
 988.8 679.8 969.2 717.6 876.8 717.6 c 0
 805.4 717.6 753.6 698 672.4 698 c 0
 610.8 698 550.6 710.6 503 748.4 c 1
 455.4 710.6 395.2 698 333.6 698 c 0
EndSplineSet
Validated: 1
EndChar

StartChar: CustosDownLong
Encoding: 26 -1 26
Width: 76
VWidth: 1160
Flags: HW
HStem: -446.1 17.1 -87 17.1 272.1 17.1 631.2 17.1
LayerCount: 2
Fore
SplineSet
76.6904 -320.08 m 6
 76.6904 -325.78 72.1299 -330.34 66.4297 -330.34 c 4
 60.7305 -330.34 56.1699 -325.78 56.1699 -320.08 c 6
 56.1699 17.3604 l 5
 53.8896 17.3604 l 6
 32.2305 17.3604 18.5498 -3.16016 0.30957 -14.5596 c 5
 0.30957 164.42 l 5
 18.5498 174.68 32.2305 196.34 53.8896 196.34 c 6
 76.6904 196.34 l 5
 76.6904 -320.08 l 6
EndSplineSet
Validated: 1
EndChar

StartChar: CustosDownMedium
Encoding: 27 -1 27
Width: 76
VWidth: 1155
Flags: HW
HStem: -450.51 17.1 -91.41 17.1 267.69 17.1 626.79 17.1
LayerCount: 2
Fore
SplineSet
76.6904 -255.81 m 6
 76.6904 -261.51 72.1299 -264.93 66.4297 -264.93 c 4
 60.7305 -264.93 56.1699 -261.51 56.1699 -255.81 c 6
 56.1699 10.9502 l 5
 53.8896 10.9502 l 6
 32.2305 10.9502 18.5498 -9.57031 0.30957 -20.9697 c 5
 0.30957 158.01 l 5
 18.5498 168.27 32.2305 189.93 53.8896 189.93 c 6
 76.6904 189.93 l 5
 76.6904 -255.81 l 6
EndSplineSet
Validated: 1
EndChar

StartChar: CustosDownShort
Encoding: 28 -1 28
Width: 76
VWidth: 1151
Flags: HW
HStem: -454.85 17.1 -95.75 17.1 263.35 17.1 622.45 17.1
LayerCount: 2
Fore
SplineSet
76.6904 -184.33 m 6
 76.6904 -190.03 72.1299 -194.59 66.4297 -194.59 c 4
 60.7305 -194.59 56.1699 -190.03 56.1699 -184.33 c 6
 56.1699 10.6104 l 5
 53.8896 10.6104 l 6
 32.2305 10.6104 18.5498 -9.91016 0.30957 -21.3096 c 5
 0.30957 157.67 l 5
 18.5498 167.93 32.2305 189.59 53.8896 189.59 c 6
 76.6904 189.59 l 5
 76.6904 -184.33 l 6
EndSplineSet
Validated: 1
EndChar

StartChar: CustosUpLong
Encoding: 29 -1 29
Width: 76
VWidth: 1119
Flags: HW
HStem: 953.97 17.1 594.87 17.1 235.77 17.1 -123.33 17.1
LayerCount: 2
Fore
SplineSet
0.30957 -17.4199 m 1
 0.30957 161.56 l 1
 18.5498 150.16 32.2305 129.64 53.8896 129.64 c 2
 56.1699 129.64 l 1
 56.1699 467.08 l 2
 56.1699 472.78 60.7305 477.34 66.4297 477.34 c 0
 72.1299 477.34 76.6904 472.78 76.6904 467.08 c 2
 76.6904 -49.3398 l 5
 53.8896 -49.3398 l 2
 32.2305 -49.3398 18.5498 -27.6797 0.30957 -17.4199 c 1
EndSplineSet
Validated: 1
EndChar

StartChar: CustosUpMedium
Encoding: 30 -1 30
Width: 76
VWidth: 1124
Flags: HW
HStem: -482.01 17.1 -122.91 17.1 236.19 17.1 595.29 17.1
LayerCount: 2
Fore
SplineSet
0.30957 -21.0098 m 5
 0.30957 157.97 l 5
 18.5498 146.57 32.2305 126.05 53.8896 126.05 c 6
 56.1699 126.05 l 5
 56.1699 392.81 l 6
 56.1699 398.51 60.7305 401.93 66.4297 401.93 c 4
 72.1299 401.93 76.6904 398.51 76.6904 392.81 c 6
 76.6904 -52.9297 l 5
 53.8896 -52.9297 l 6
 32.2305 -52.9297 18.5498 -31.2695 0.30957 -21.0098 c 5
EndSplineSet
Validated: 1
EndChar

StartChar: CustosUpShort
Encoding: 31 -1 31
Width: 76
VWidth: 1128
Flags: HW
HStem: 1080.14 17.1 721.04 17.1 361.94 17.1 2.84 17.1
LayerCount: 2
Fore
SplineSet
0.30957 -13.6699 m 5
 0.30957 165.31 l 5
 18.5498 153.91 32.2305 133.39 53.8896 133.39 c 6
 56.1699 133.39 l 5
 56.1699 328.33 l 6
 56.1699 334.03 60.7305 338.59 66.4297 338.59 c 4
 72.1299 338.59 76.6904 334.03 76.6904 328.33 c 6
 76.6904 -45.5898 l 5
 53.8896 -45.5898 l 6
 32.2305 -45.5898 18.5498 -23.9297 0.30957 -13.6699 c 5
EndSplineSet
Validated: 1
EndChar

StartChar: deminutus
Encoding: 32 -1 32
Width: 97
VWidth: 2048
Flags: HW
HStem: 575.44 17.1 216.34 17.1 -142.76 17.1 -501.86 17.1
LayerCount: 2
Fore
SplineSet
75 128.8 m 1
 75.2 136.4 75.0127 145 75 152.618 c 1
 94.0127 152.75 79 153 97 153.018 c 1
 97 23.0996 l 6
 97 7.13965 69.54 -3.12012 49.0205 -3.12012 c 0
 27.3604 -3.12012 0 7.13965 0 23.0996 c 2
 0 112.02 l 2
 0 121.14 7.98047 129.12 17.1006 129.12 c 0
 28.5 129.12 30.7803 120 49.0205 120 c 0
 67.2598 120 69.2537 123.2 75 128.8 c 1
EndSplineSet
EndChar

StartChar: deminutus#Cavum
Encoding: 33 -1 33
Width: 97
VWidth: 2048
Flags: W
HStem: -476.55 17.1 -117.45 17.1 241.65 17.1 600.75 17.1
LayerCount: 2
Fore
SplineSet
34.6064 99.417 m 1
 39.1211 99.417 42.6641 96.8838 47.9883 96.8838 c 0
 57.5703 96.8838 57.1035 99.417 63.1221 99.417 c 0
 69.1426 99.417 74.6299 96.1494 74.6299 90.1309 c 2
 74.6299 40.6309 l 2
 74.6299 23.3262 55.6943 18.8115 48.1699 18.8115 c 0
 41.3984 18.8115 23.3701 23.3037 23.3701 40.6084 c 1
 23.3701 90.1289 l 1
 23.624 96.1475 28.5615 99.417 34.6064 99.417 c 1
EndSplineSet
EndChar

StartChar: DescendensOriscus
Encoding: 34 -1 34
Width: 192
Flags: HW
HStem: -473.822 17.1 -114.722 17.1 244.378 17.1 603.478 17.1
LayerCount: 2
Fore
SplineSet
177.181 -42.0859 m 0
 168.061 -42.0859 174.9 -7.88574 140.7 -7.88574 c 0
 109.92 -7.88574 91.6807 -40.9463 59.7598 -40.9463 c 0
 34.6807 -40.9463 13.0205 -20.4258 6.18066 6.93359 c 0
 2.75977 24.0342 0.0136719 51.3848 0.0136719 69.625 c 4
 0.0136719 87.8652 3.90039 149.435 15.2998 149.435 c 0
 25.5605 149.435 17.5801 115.234 51.7803 115.234 c 0
 82.5605 115.234 101.94 148.294 132.721 148.294 c 0
 158.94 148.294 179.46 127.774 186.3 100.414 c 0
 190.86 83.3135 192 55.9541 192 37.7139 c 0
 192 19.4736 188.58 -42.0859 177.181 -42.0859 c 0
EndSplineSet
Validated: 1
EndChar

StartChar: DescendensOriscus#Cavum
Encoding: 35 -1 35
Width: 192
Flags: HW
HStem: -305.023 11.628 -60.8351 11.628 183.353 11.628 427.541 11.628
LayerCount: 2
Fore
SplineSet
151.205 17.5576 m 4
 145.003 17.5576 136.753 18.3408 123.398 15.8135 c 4
 98.9844 11.1934 89.0654 -7.66797 67.3584 -10.668 c 4
 50.4648 -13.0029 39.5762 3.28613 34.9248 21.8906 c 4
 32.5986 33.5195 30.7314 52.1172 30.7314 64.5205 c 4
 30.7314 76.9238 33.375 89.792 41.126 89.792 c 4
 48.1035 89.792 55.5781 89.0078 68.9326 91.5352 c 4
 93.3467 96.1553 104.042 115.016 124.973 118.016 c 4
 142.621 120.545 152.755 104.062 157.406 85.457 c 4
 160.507 73.8291 161.282 55.2246 161.282 42.8213 c 4
 161.282 30.418 158.957 17.5576 151.205 17.5576 c 4
EndSplineSet
EndChar

StartChar: DescendensOriscusLineBL
Encoding: 36 -1 36
Width: 192
Flags: W
HStem: -473.822 17.1 -114.722 17.1 244.378 17.1 603.478 17.1
LayerCount: 2
Fore
SplineSet
0.0101797 -58 m 1
 0.0136719 69.625 l 0
 0.0136719 87.8652 3.90039 149.435 15.2998 149.435 c 0
 25.5605 149.435 17.5801 115.234 51.7803 115.234 c 0
 82.5605 115.234 101.94 148.294 132.721 148.294 c 0
 158.94 148.294 179.46 127.774 186.3 100.414 c 0
 190.86 83.3135 192 55.9541 192 37.7139 c 0
 192 19.4736 188.58 -42.0859 177.181 -42.0859 c 0
 168.061 -42.0859 174.9 -7.88574 140.7 -7.88574 c 0
 109.92 -7.88574 91.6807 -40.9463 59.7598 -40.9463 c 0
 45.3152 -40.9463 32.0047 -34.139 22.0068 -23.1387 c 1
 22.0119 -58 l 1
 0.0101797 -58 l 1
EndSplineSet
EndChar

StartChar: DescendensOriscusLineBLBR
Encoding: 37 -1 37
Width: 192
Flags: HW
HStem: -473.822 17.1 -114.722 17.1 244.378 17.1 603.478 17.1
LayerCount: 2
Fore
SplineSet
0.0136719 69.625 m 4
 0.0136719 87.8652 3.90039 149.435 15.2998 149.435 c 0
 25.5605 149.435 17.5801 115.234 51.7803 115.234 c 0
 82.5605 115.234 101.94 148.294 132.721 148.294 c 0
 158.94 148.294 179.46 127.774 186.3 100.414 c 0
 190.86 83.3135 192 55.9541 192 37.7139 c 0
 192 24.5596 192 -21.5 192 -42 c 1
 182.5 -42 179 -42 170 -42 c 1
 170 -31.5 170 -35.5 170 -25 c 1
 166.671 -15.2842 160.71 -7.88574 140.7 -7.88574 c 0
 109.92 -7.88574 91.6807 -40.9463 59.7598 -40.9463 c 0
 45.3285 -40.9463 32.0294 -34.1516 22.0346 -23.169 c 1
 22.0225 -42.0791 l 1
 0.0136719 -42.0859 l 5
 0.0136719 69.625 l 4
EndSplineSet
EndChar

StartChar: DescendensOriscusLineBLTR
Encoding: 38 -1 38
Width: 192
Flags: HW
HStem: -473.822 17.1 -114.722 17.1 244.378 17.1 603.478 17.1
LayerCount: 2
Fore
SplineSet
0.0136719 69.625 m 4
 0.0136719 87.8652 3.90039 149.435 15.2998 149.435 c 0
 25.5605 149.435 17.5801 115.234 51.7803 115.234 c 0
 82.5605 115.234 101.94 148.294 132.721 148.294 c 0
 147.398 148.294 160.29 141.864 169.995 131.403 c 1
 169.991 151.141 l 1
 192 151.148 l 1
 192 37.7139 l 0
 192 19.4736 188.58 -42.0859 177.181 -42.0859 c 0
 168.061 -42.0859 174.9 -7.88574 140.7 -7.88574 c 0
 109.92 -7.88574 91.6807 -40.9463 59.7598 -40.9463 c 0
 45.3253 -40.9463 32.0234 -34.1485 22.0279 -23.1616 c 1
 22.0225 -42.0791 l 1
 0.0136719 -42.0859 l 5
 0.0136719 69.625 l 4
EndSplineSet
EndChar

StartChar: DescendensOriscusLineBR
Encoding: 39 -1 39
Width: 192
Flags: HW
HStem: -473.822 17.1 -114.722 17.1 244.378 17.1 603.478 17.1
LayerCount: 2
Fore
SplineSet
170 -42 m 5
 170 -31.5 170 -35.5 170 -25 c 1
 166.671 -15.2842 160.71 -7.88574 140.7 -7.88574 c 0
 109.92 -7.88574 91.6807 -40.9463 59.7598 -40.9463 c 0
 34.6807 -40.9463 13.0205 -20.4258 6.18066 6.93359 c 0
 2.75977 24.0342 0.0136719 51.3848 0.0136719 69.625 c 0
 0.0136719 87.8652 3.90039 149.435 15.2998 149.435 c 0
 25.5605 149.435 17.5801 115.234 51.7803 115.234 c 0
 82.5605 115.234 101.94 148.294 132.721 148.294 c 0
 158.94 148.294 179.46 127.774 186.3 100.414 c 0
 190.86 83.3135 192 55.9541 192 37.7139 c 0
 192 24.5596 192 -21.5 192 -42 c 5
 170 -42 l 5
EndSplineSet
EndChar

StartChar: DescendensOriscusLineTL
Encoding: 40 -1 40
Width: 192
Flags: HW
HStem: -473.822 17.1 -114.722 17.1 244.378 17.1 603.478 17.1
LayerCount: 2
Fore
SplineSet
177.181 -42.0859 m 0
 168.061 -42.0859 174.9 -7.88574 140.7 -7.88574 c 0
 109.92 -7.88574 91.6807 -40.9463 59.7598 -40.9463 c 0
 34.6807 -40.9463 13.0205 -20.4258 6.18066 6.93359 c 0
 2.75977 24.0342 0.0136719 51.3848 0.0136719 69.625 c 0
 0.0136719 79.4766 -2.8252 132.545 0.0136719 151.148 c 1
 22.0225 151.141 0.0136719 151.148 22.0225 151.141 c 1
 24.8711 145.714 24.4424 115.571 51.7803 115.234 c 0
 82.5586 114.854 101.94 148.294 132.721 148.294 c 0
 158.94 148.294 179.46 127.774 186.3 100.414 c 0
 190.86 83.3135 192 55.9541 192 37.7139 c 0
 192 19.4736 188.58 -42.0859 177.181 -42.0859 c 0
EndSplineSet
EndChar

StartChar: DescendensOriscusLineTLBR
Encoding: 41 -1 41
Width: 192
Flags: HW
HStem: -473.822 17.1 -114.722 17.1 244.378 17.1 603.478 17.1
LayerCount: 2
Fore
SplineSet
132.721 148.294 m 0
 158.94 148.294 179.46 127.774 186.3 100.414 c 0
 190.86 83.3135 192 55.9541 192 37.7139 c 0
 192 37.6699 192 37.625 192 37.5801 c 0
 192 37.5322 192 37.4854 192 37.4375 c 0
 192 27.5859 194.839 -25.4824 192 -44.0859 c 1
 169.991 -44.0859 l 1
 167.143 -38.6592 167.571 -8.50879 140.233 -8.17188 c 0
 106.215 -7.75195 94.0938 -41.2314 59.293 -41.2314 c 0
 33.0732 -41.2314 12.5537 -20.7119 5.71387 6.64844 c 0
 1.15332 23.749 0.0136719 51.1084 0.0136719 69.3486 c 2
 0.0136719 69.4824 l 1
 0.0136719 69.625 l 2
 0.0136719 79.4766 -2.8252 132.538 0.0136719 151.141 c 1
 22.0225 151.141 0.0136719 151.141 22.0225 151.141 c 1
 24.8711 145.714 24.4424 115.571 51.7803 115.234 c 0
 85.7969 114.814 97.9199 148.294 132.721 148.294 c 0
EndSplineSet
EndChar

StartChar: DescendensOriscusLineTLTR
Encoding: 42 -1 42
Width: 192
Flags: HW
HStem: -473.822 17.1 -114.722 17.1 244.378 17.1 603.478 17.1
LayerCount: 2
Fore
SplineSet
192 37.7139 m 4
 192 19.4736 188.58 -42.0859 177.181 -42.0859 c 0
 168.061 -42.0859 174.9 -7.88574 140.7 -7.88574 c 0
 109.92 -7.88574 91.6807 -40.9463 59.7598 -40.9463 c 0
 34.6807 -40.9463 13.0205 -20.4258 6.18066 6.93359 c 0
 2.75977 24.0342 0.0136719 51.3848 0.0136719 69.625 c 0
 0.0136719 79.4766 -2.8252 132.545 0.0136719 151.148 c 1
 12.2998 151.143 9.44238 150.857 22.0225 151.141 c 1
 24.8711 145.714 24.4424 115.571 51.7803 115.234 c 0
 82.5586 114.854 101.94 148.294 132.721 148.294 c 0
 147.411 148.294 160.312 141.852 170.02 131.375 c 1
 169.991 151.141 l 1
 192 151.148 l 5
 192 37.7139 l 4
EndSplineSet
EndChar

StartChar: DescendensOriscusLineTR
Encoding: 43 -1 43
Width: 192
Flags: HW
HStem: -473.822 17.1 -114.722 17.1 244.378 17.1 603.478 17.1
LayerCount: 2
Fore
SplineSet
192 37.7139 m 0
 192 19.4736 188.58 -42.0859 177.181 -42.0859 c 0
 168.061 -42.0859 174.9 -7.88574 140.7 -7.88574 c 0
 109.92 -7.88574 91.6807 -40.9463 59.7598 -40.9463 c 0
 34.6807 -40.9463 13.0205 -20.4258 6.18066 6.93359 c 0
 2.75977 24.0342 0.0136719 51.3848 0.0136719 69.625 c 0
 0.0136719 87.8652 3.90039 149.435 15.2998 149.435 c 0
 25.5605 149.435 17.5801 115.234 51.7803 115.234 c 0
 82.5605 115.234 101.94 148.294 132.721 148.294 c 0
 147.428 148.294 160.341 141.838 170.053 131.34 c 1
 169.991 151.141 l 5
 192 151.148 l 5
 192 37.7139 l 0
EndSplineSet
EndChar

StartChar: DescendensPunctumInclinatum
Encoding: 44 -1 44
Width: 178
Flags: HW
HStem: -476.247 17.1 -117.147 17.1 241.953 17.1 601.053 17.1
LayerCount: 2
Fore
SplineSet
3.43652 58.6895 m 6
 2.13965 60.8848 0.763672 64.2168 0.605469 66.4922 c 4
 0.446289 68.7666 1.34375 72.2578 2.32324 74.6123 c 6
 69.5068 192.444 l 6
 71.4629 197.153 75.8535 199.745 80.4014 200.062 c 4
 84.9502 200.381 89.6592 198.426 93.3887 194.114 c 6
 174.961 86.5625 l 5
 177.395 84.4473 177.633 81.0352 177.792 78.7607 c 4
 177.951 76.4854 178.392 73.0879 176.275 70.6543 c 5
 110.247 -46.9766 l 6
 107.153 -51.7646 102.764 -54.3564 98.2148 -54.6738 c 4
 93.666 -54.9922 88.958 -53.0371 86.3652 -48.6465 c 6
 3.43652 58.6895 l 6
EndSplineSet
Validated: 1
EndChar

StartChar: DescendensPunctumInclinatum#Cavum
Encoding: 45 -1 45
Width: 178
Flags: HW
HStem: -476.247 17.1 -117.147 17.1 241.953 17.1 601.053 17.1
LayerCount: 2
Fore
SplineSet
29.165 62.8906 m 2
 28.2578 64.4277 27.2939 66.7598 27.1836 68.3525 c 0
 27.0723 69.9453 27.7002 72.3887 28.3857 74.0371 c 2
 75.4141 156.519 l 2
 76.7832 159.815 79.8574 161.63 83.041 161.852 c 0
 86.2246 162.075 89.5215 160.706 92.1318 157.688 c 2
 149.232 82.4023 l 1
 150.937 80.9209 151.103 78.5332 151.214 76.9404 c 0
 151.325 75.3477 151.634 72.9697 150.152 71.2666 c 1
 103.933 -11.0752 l 2
 101.767 -14.4268 98.6943 -16.2412 95.5098 -16.4639 c 0
 92.3262 -16.6865 89.0303 -15.3174 87.2148 -12.2441 c 2
 29.165 62.8906 l 2
EndSplineSet
Validated: 1
EndChar

StartChar: DivisioDominican
Encoding: 46 -1 46
Width: 22
VWidth: 2048
Flags: W
HStem: -420 15 -106 15 210 15 524 15
LayerCount: 2
Fore
SplineSet
0 -94 m 29
 0 383 l 25
 22 383 l 25
 22 -94 l 29
 0 -94 l 29
EndSplineSet
Validated: 1
EndChar

StartChar: DivisioDominicanAlt
Encoding: 47 -1 47
Width: 22
VWidth: 2048
Flags: W
HStem: -420 15 -106 15 210 15 524 15
LayerCount: 2
Fore
SplineSet
0 -246 m 29
 0 231 l 29
 22 231 l 29
 22 -246 l 29
 0 -246 l 29
EndSplineSet
Validated: 1
EndChar

StartChar: DivisioMaior
Encoding: 48 -1 48
Width: 19
VWidth: 2048
Flags: HW
HStem: -409 15 -94 15 221 15 536 15
LayerCount: 2
Fore
SplineSet
0 550.999 m 25
 19 551 l 25
 18.9912 -408.997 l 25
 0 -409.002 l 29
 0 550.999 l 25
EndSplineSet
Validated: 1
EndChar

StartChar: DivisioMaior.2
Encoding: 49 -1 49
Width: 19
VWidth: 2048
Flags: HW
HStem: -409 15 -94 15 221 15 536 15
LayerCount: 2
Fore
SplineSet
0 -79.001 m 29
 19 -79 l 29
 18.9912 -408.997 l 25
 0 -409.002 l 25
 0 -79.001 l 29
EndSplineSet
EndChar

StartChar: DivisioMaior.3
Encoding: 50 -1 50
Width: 19
VWidth: 2048
Flags: HW
HStem: -409 15 -94 15 221 15 536 15
LayerCount: 2
Fore
SplineSet
0 235.999 m 29
 19 236 l 29
 18.9912 -408.997 l 25
 0 -409.002 l 25
 0 235.999 l 29
EndSplineSet
EndChar

StartChar: DivisioMaior.5
Encoding: 51 -1 51
Width: 19
VWidth: 2048
Flags: HW
HStem: -409 15 -94 15 221 15 536 15
LayerCount: 2
Fore
SplineSet
0 865.999 m 29
 19 866 l 29
 18.9912 -408.997 l 25
 0 -409.002 l 25
 0 865.999 l 29
EndSplineSet
EndChar

StartChar: DivisioMinima
Encoding: 52 -1 52
AltUni2: 000050.ffffffff.0
Width: 19
VWidth: 2048
Flags: HW
HStem: -409 15 -94 15 221 15 536 15
LayerCount: 2
Fore
SplineSet
0 359.128 m 9
 0.00292969 719.984 l 25
 18.999 720.021 l 25
 19 352.431 l 17
 6.04348 352.565 2.43478 355.609 0 359.128 c 9
EndSplineSet
Validated: 1
EndChar

StartChar: DivisioMinima.2
Encoding: 53 -1 53
Width: 19
VWidth: 1418
Flags: HW
HStem: -1039 15 -724 15 -409 15 -94 15
LayerCount: 2
Fore
SplineSet
0 -270.872 m 9
 0.00292969 89.9844 l 25
 18.999 90.0215 l 25
 19 -277.569 l 17
 6.04395 -277.435 2.43457 -274.391 0 -270.872 c 9
EndSplineSet
EndChar

StartChar: DivisioMinima.3
Encoding: 54 -1 54
Width: 19
VWidth: 1733
Flags: HW
HStem: -724 15 -409 15 -94 15 221 15
LayerCount: 2
Fore
SplineSet
0 44.1279 m 9
 0.00292969 404.984 l 25
 18.999 405.021 l 25
 19 37.4307 l 17
 6.04395 37.5654 2.43457 40.6094 0 44.1279 c 9
EndSplineSet
EndChar

StartChar: DivisioMinima.5
Encoding: 55 -1 55
Width: 19
VWidth: 2363
Flags: HW
HStem: -94 15 221 15 536 15 851 15
LayerCount: 2
Fore
SplineSet
0 674.128 m 9
 0.00292969 1034.98 l 25
 18.999 1035.02 l 25
 19 667.431 l 17
 6.04395 667.565 2.43457 670.609 0 674.128 c 9
EndSplineSet
EndChar

StartChar: DivisioMinor
Encoding: 56 -1 56
Width: 19
VWidth: 2048
Flags: HW
HStem: -409 15 -94 15 221 15 536 15
LayerCount: 2
Fore
SplineSet
0 -296.375 m 13
 0 383.125 l 21
 3.87305 385.802 10.75 386.375 19 386.5 c 13
 19 -293.375 l 21
 14.875 -293.5 5 -293.375 0 -296.375 c 13
EndSplineSet
Validated: 1
EndChar

StartChar: DivisioMinor.2
Encoding: 57 -1 57
Width: 19
VWidth: 2048
Flags: HW
HStem: -409 15 -94 15 221 15 536 15
LayerCount: 2
Fore
SplineSet
0 -157.001 m 25
 19 -157 l 25
 18.9912 -330.997 l 29
 0 -331.002 l 29
 0 -157.001 l 25
EndSplineSet
EndChar

StartChar: DivisioMinor.3
Encoding: 58 -1 58
Width: 19
VWidth: 2048
Flags: HW
HStem: -409 15 -94 15 221 15 536 15
LayerCount: 2
Fore
SplineSet
0 78.499 m 25
 19 78.5 l 25
 18.9912 -251.497 l 29
 0 -251.502 l 29
 0 78.499 l 25
EndSplineSet
EndChar

StartChar: DivisioMinor.5
Encoding: 59 -1 59
Width: 19
VWidth: 2048
Flags: HW
HStem: -409 15 -94 15 221 15 536 15
LayerCount: 2
Fore
SplineSet
0 708.499 m 25
 19 708.5 l 25
 18.9912 -251.497 l 29
 0 -251.502 l 29
 0 708.499 l 25
EndSplineSet
EndChar

StartChar: FClef
Encoding: 60 -1 60
Width: 299
VWidth: 1119
Flags: HW
HStem: -486.91 17.1 -127.81 17.1 231.29 17.1 590.39 17.1
LayerCount: 2
Fore
SplineSet
242.82 303 m 0
 208.62 303 176.7 277.92 176.7 246 c 0
 176.7 214.08 208.62 189 242.82 189 c 0
 270.18 189 285 204.96 289.56 204.96 c 0
 297.54 204.96 299 137.604 299 119.363 c 0
 299 88.583 296.4 38.5195 290.7 33.96 c 0
 277.02 23.7002 259.92 18 243.96 18 c 0
 209.76 18 165.3 45.3604 159.6 113.76 c 0
 157.32 128.58 156.18 147.96 156.18 167.34 c 2
 156.18 324.66 l 2
 156.18 337.2 148.2 454.62 228 472.86 c 0
 233.7 474 238.26 474 243.96 474 c 0
 259.92 474 277.02 468.3 290.7 458.04 c 0
 299.82 451.2 299 373.504 299 372.364 c 4
 299 354.124 297.54 287.04 289.56 287.04 c 0
 285 287.04 270.18 303 242.82 303 c 0
10.2598 175.32 m 1
 2.28027 175.32 0 231.18 0 246 c 0
 0 259.68 1.13965 312.12 9.12012 316.68 c 0
 25.0801 326.94 43.3203 331.5 61.5596 331.5 c 0
 91.2002 331.5 116.28 320.1 133.38 301.86 c 0
 141.36 295.02 142.5 240.3 142.5 231.18 c 2
 142.5 -171.24 l 2
 142.5 -176.94 137.94 -181.5 132.24 -181.5 c 0
 126.54 -181.5 121.979 -176.94 121.979 -171.24 c 2
 121.979 168.48 l 1
 99.1797 186.72 74.0996 189 62.7002 189 c 0
 33.0596 189 10.2598 175.32 10.2598 175.32 c 1
EndSplineSet
Validated: 33
EndChar

StartChar: FClefChange
Encoding: 61 -1 61
Width: 299
VWidth: 1119
Flags: W
HStem: -486.91 17.1 -127.81 17.1 231.29 17.1 590.39 17.1
LayerCount: 2
Fore
SplineSet
242.82 303 m 0
 208.62 303 176.7 277.92 176.7 246 c 0
 176.7 214.08 208.62 189 242.82 189 c 0
 270.18 189 285 204.96 289.56 204.96 c 0
 297.54 204.96 299 137.604 299 119.363 c 0
 299 88.583 296.4 38.5195 290.7 33.96 c 0
 277.02 23.7002 259.92 18 243.96 18 c 0
 209.76 18 165.3 45.3604 159.6 113.76 c 0
 157.32 128.58 156.18 147.96 156.18 167.34 c 2
 156.18 324.66 l 2
 156.18 337.2 148.2 454.62 228 472.86 c 0
 233.7 474 238.26 474 243.96 474 c 0
 259.92 474 277.02 468.3 290.7 458.04 c 0
 299.82 451.2 299 373.504 299 372.364 c 4
 299 354.124 297.54 287.04 289.56 287.04 c 0
 285 287.04 270.18 303 242.82 303 c 0
10.2598 175.32 m 1
 2.28027 175.32 0 231.18 0 246 c 0
 0 259.68 1.13965 312.12 9.12012 316.68 c 0
 25.0801 326.94 43.3203 331.5 61.5596 331.5 c 0
 91.2002 331.5 116.28 320.1 133.38 301.86 c 0
 141.36 295.02 142.5 240.3 142.5 231.18 c 2
 142.5 -171.24 l 2
 142.5 -176.94 137.94 -181.5 132.24 -181.5 c 0
 126.54 -181.5 121.979 -176.94 121.979 -171.24 c 2
 121.979 168.48 l 1
 99.1797 186.72 74.0996 189 62.7002 189 c 0
 33.0596 189 10.2598 175.32 10.2598 175.32 c 1
EndSplineSet
Validated: 33
EndChar

StartChar: Flat
Encoding: 62 -1 62
Width: 159
VWidth: 1120
Flags: HW
HStem: -485.3 17.1 -126.2 17.1 232.9 17.1 592 17.1
LayerCount: 2
Fore
SplineSet
7.98047 312.92 m 0
 14.8203 312.92 15.9609 287.84 15.9609 281 c 2
 15.9609 60.9795 l 6
 15.9609 55.2803 96.9004 1.7002 126.54 1.7002 c 0
 135.66 1.7002 142.5 6.25977 142.5 15.3799 c 2
 142.5 30.2002 l 2
 142.5 74.6602 53.5801 72.3799 44.4609 105.439 c 0
 43.3203 111.14 42.1807 119.12 42.1807 127.1 c 0
 42.1807 133.939 44.4609 157.88 50.1602 157.88 c 0
 53.5801 157.88 54.7207 152.18 78.6602 141.92 c 0
 129.961 117.979 159 109.873 159 59.7129 c 2
 159 -16.667 l 2
 159 -41.7471 152.761 -57.5801 127.681 -57.5801 c 0
 92.3408 -57.5801 14.8203 -10.8398 5.7002 0.55957 c 0
 2.28027 3.97949 0 15.3799 0 30.2002 c 2
 0 281 l 2
 0 287.84 1.14062 312.92 7.98047 312.92 c 0
EndSplineSet
Validated: 1
EndChar

StartChar: FlatHole
Encoding: 63 -1 63
Width: 159
VWidth: 1120
Flags: HW
HStem: -409 15 -94 15 221 15 536 15
LayerCount: 2
Fore
SplineSet
9.63379 61.7178 m 5
 10.2266 110.69 l 29
 40.9844 110.623 l 5
 40.9844 110.623 148.827 76.7666 148.827 27.8604 c 6
 148.827 11.5576 l 6
 148.827 1.52539 141.303 -3.49023 131.271 -3.49023 c 4
 98.667 -3.49023 9.63379 61.7178 9.63379 61.7178 c 5
EndSplineSet
Validated: 1
EndChar

StartChar: hepisemaleft
Encoding: 64 -1 64
Width: 1
VWidth: 1968
Flags: HW
HStem: -489 15 -174 15 141 15 456 15
LayerCount: 2
Fore
SplineSet
-2 -16 m 29
 0 16 l 25
 1 16 l 25
 1 -16 l 25
 -2 -16 l 29
EndSplineSet
EndChar

StartChar: hepisemaright
Encoding: 65 -1 65
Width: 2
VWidth: 1968
Flags: HW
HStem: -489 15 -174 15 141 15 456 15
LayerCount: 2
Fore
SplineSet
0 -16 m 25
 -1 -16 l 25
 -1 16 l 29
 2 16 l 25
 0 -16 l 25
EndSplineSet
EndChar

StartChar: hepisema_base
Encoding: 66 -1 66
Width: 1
VWidth: 1972
Flags: HW
HStem: -485 15 -170 15 145 15 460 15
LayerCount: 2
Fore
SplineSet
0 -16 m 29
 0 16 l 25
 1 16 l 25
 1 -16 l 25
 0 -16 l 29
EndSplineSet
EndChar

StartChar: idebilis
Encoding: 67 -1 67
Width: 97
VWidth: 2048
Flags: HW
HStem: -466.54 17.1 -107.44 17.1 251.66 17.1 610.76 17.1
LayerCount: 2
Fore
SplineSet
79.7998 -3.12012 m 0
 69.54 -3.12012 67.2598 6 49.0205 6 c 0
 30.7803 6 28.5 -3.12012 17.1006 -3.12012 c 0
 7.98047 -3.12012 0 4.86035 0 13.9805 c 2
 0 102.9 l 2
 0 118.86 27.3604 129.12 49.0205 129.12 c 0
 59.5713 129.12 65.4814 127.806 75 123 c 1
 75 150 l 1
 89 149 83.5 149 97 148.5 c 1
 97 13.9805 l 6
 97 4.86035 88.9199 -3.12012 79.7998 -3.12012 c 0
EndSplineSet
EndChar

StartChar: idebilis#Cavum
Encoding: 68 -1 68
Width: 97
VWidth: 2048
Flags: HW
HStem: -466.54 17.1 -107.44 17.1 251.66 17.1 610.76 17.1
LayerCount: 2
Fore
SplineSet
34.6064 25.8115 m 5
 28.5615 25.8115 23.624 29.0811 23.3701 35.0996 c 5
 23.3701 84.6201 l 5
 23.3701 101.925 41.3984 106.417 48.1699 106.417 c 4
 55.6943 106.417 74.6299 101.902 74.6299 84.5977 c 6
 74.6299 35.0977 l 6
 74.6299 29.0791 69.1426 25.8115 63.1221 25.8115 c 4
 57.1035 25.8115 57.5703 28.3447 47.9883 28.3447 c 4
 42.6641 28.3447 39.1211 25.8115 34.6064 25.8115 c 5
EndSplineSet
EndChar

StartChar: line2
Encoding: 69 -1 69
Width: 22
VWidth: 2048
Flags: HW
HStem: -409 15 -94 15 221 15 536 15
LayerCount: 2
Fore
SplineSet
0 -11.5 m 25
 0 146 l 25
 22 146 l 25
 22 -11.5 l 25
 0 -11.5 l 25
EndSplineSet
Validated: 1
EndChar

StartChar: line3
Encoding: 70 -1 70
Width: 22
VWidth: 2048
Flags: HW
HStem: -420.5 15 -105.5 15 209.5 15 524.5 15
LayerCount: 2
Fore
SplineSet
0 -11.5 m 25
 0 303.5 l 25
 22 303.5 l 25
 22 -11.5 l 25
 0 -11.5 l 25
EndSplineSet
Validated: 1
EndChar

StartChar: line4
Encoding: 71 -1 71
Width: 22
VWidth: 2048
Flags: W
HStem: -420.5 15 -105.5 15 209.5 15 524.5 15
LayerCount: 2
Fore
SplineSet
0 -11.5 m 25
 0 453.5 l 25
 22 453.5 l 25
 22 -11.5 l 25
 0 -11.5 l 25
EndSplineSet
EndChar

StartChar: line5
Encoding: 72 -1 72
Width: 22
VWidth: 2048
Flags: HW
HStem: -420.5 15 -105.5 15 209.5 15 524.5 15
LayerCount: 2
Fore
SplineSet
0 -11.5 m 25
 0 619.5 l 25
 22 619.5 l 25
 22 -11.5 l 25
 0 -11.5 l 25
EndSplineSet
Validated: 1
EndChar

StartChar: Linea
Encoding: 73 -1 73
Width: 431
VWidth: 2612
Flags: W
HStem: -409 15 -94 15 221 15 536 15
LayerCount: 2
Fore
SplineSet
19 -54.8037 m 1
 16.5 -56.9473 12.9561 -58.3662 0 -58.5 c 9
 0 201.053 l 17
 7.8623 201.694 12.5 201.553 18.999 199.016 c 1
 19 149.5 l 1
 51 148 160.601 147.9 216.5 147.9 c 0
 272.4 147.9 380 148 412 149.5 c 1
 412.001 199.016 l 1
 418.5 201.553 423.138 201.694 431 201.053 c 9
 431 -58.5 l 17
 418.044 -58.3662 414.5 -56.9473 412 -54.8037 c 1
 412 -7.7998 l 1
 376.5 -6.09961 252.268 -6.09961 215 -6.09961 c 0
 176.867 -6.09961 48.5 -6.09961 19 -7.7998 c 1
 19 -54.8037 l 1
EndSplineSet
Validated: 1
EndChar

StartChar: Linea#Cavum
Encoding: 74 -1 74
Width: 431
VWidth: 2612
Flags: HW
HStem: -409 15 -94 15 221 15 536 15
LayerCount: 2
Fore
SplineSet
411.84 11.1787 m 1
 384.86 12.4707 243.443 12.4707 215.12 12.4707 c 0
 186.139 12.4707 41.5801 12.4707 19.1602 11.1787 c 1
 19.1602 130.727 l 1
 43.4805 129.586 173.776 129.511 216.26 129.511 c 0
 258.744 129.511 387.52 129.586 411.84 130.727 c 1
 411.84 11.1787 l 1
EndSplineSet
EndChar

StartChar: LineaPunctum
Encoding: 75 -1 75
Width: 258
VWidth: 1139
Flags: HW
VStem: -15.82 20.52<-101.46 101.46> 32.06 160.74<-78.66 70.68 -83.22 83.79> 221.3 20.52<-101.46 101.46>
LayerCount: 2
Fore
SplineSet
257.82 -41.46 m 6
 257.82 -47.1602 253.26 -51.7197 247.56 -51.7197 c 4
 241.86 -51.7197 237.3 -47.1602 237.3 -41.46 c 6
 237.3 161.46 l 6
 237.3 167.16 241.86 171.72 247.56 171.72 c 4
 253.26 171.72 257.82 167.16 257.82 161.46 c 6
 257.82 -41.46 l 6
20.7002 -41.46 m 6
 20.7002 -47.1602 16.1396 -51.7197 10.4404 -51.7197 c 4
 4.74023 -51.7197 0.179688 -47.1602 0.179688 -41.46 c 6
 0.179688 161.46 l 6
 0.179688 167.16 4.74023 171.72 10.4404 171.72 c 4
 16.1396 171.72 20.7002 167.16 20.7002 161.46 c 6
 20.7002 -41.46 l 6
65.1602 -35.7598 m 4
 56.04 -35.7598 48.0596 -27.7803 48.0596 -18.6602 c 6
 48.0596 130.68 l 6
 48.0596 156.9 117.6 163.74 129 163.74 c 4
 139.26 163.74 208.8 156.9 208.8 130.68 c 6
 208.8 -18.6602 l 6
 208.8 -27.7803 200.82 -35.7598 192.84 -35.7598 c 4
 182.58 -35.7598 166.62 -19.7998 129 -19.7998 c 4
 90.2402 -19.7998 74.2803 -35.7598 65.1602 -35.7598 c 4
EndSplineSet
Validated: 1
EndChar

StartChar: LineaPunctum#Cavum
Encoding: 76 -1 76
Width: 258
VWidth: 1139
Flags: HW
HStem: -476.55 17.1 -117.45 17.1 241.65 17.1 600.75 17.1
LayerCount: 2
Fore
SplineSet
86.6064 4.81152 m 1
 80.5615 4.81152 75.624 10.0811 75.3701 16.0996 c 1
 75.3701 112.62 l 1
 75.3701 129.925 121.398 134.417 128.17 134.417 c 0
 135.694 134.417 181.63 129.902 181.63 112.598 c 2
 181.63 16.0977 l 2
 181.63 10.0791 176.143 4.81152 170.122 4.81152 c 0
 164.104 4.81152 153.57 9.34473 127.988 9.34473 c 0
 104.664 9.34473 91.1211 4.81152 86.6064 4.81152 c 1
EndSplineSet
EndChar

StartChar: mademinutus
Encoding: 77 -1 77
Width: 161
Flags: HW
HStem: -409 15 -94 15 221 15 536 15
LayerCount: 2
Fore
SplineSet
161 -21.5 m 1
 161 -21.5 140.645 -22.4869 139 -21.5 c 0
 129 -15.5 118.485 -5.80859 79.7246 -5.80859 c 0
 44.3848 -5.80859 23.8652 -21.7686 17.0254 -21.7686 c 1
 7.86523 -21.7686 0.384766 -13.7842 0 -4.66504 c 1
 0 171.5 l 1
 10.5 171.5 10 171.5 22 171.5 c 1
 22 161.5 22 164 22 152.702 c 1
 43.3739 161.288 73.5266 163.997 80 163.997 c 0
 91.4004 163.997 161 157.157 161 130.938 c 2
 161 -21.5 l 1
EndSplineSet
EndChar

StartChar: mdeminutus
Encoding: 78 -1 78
Width: 161
Flags: HW
HStem: -476.55 17.1 -117.45 17.1 241.65 17.1 600.75 17.1
LayerCount: 2
Fore
SplineSet
161 -21.5 m 5
 161 -21.5 140.905 -21.7241 139 -21.5 c 4
 130.5 -20.5 118.485 -5.80859 79.7246 -5.80859 c 4
 44.3848 -5.80859 28.8398 -21.2949 22 -21.2949 c 5
 12.8398 -21.2949 15.5449 -21.2949 0 -21.2949 c 5
 0 130.972 l 5
 0 157.191 69.7402 163.997 80 163.997 c 4
 91.4004 163.997 161 157.157 161 130.938 c 6
 161 -21.5 l 5
EndSplineSet
Validated: 1
EndChar

StartChar: mnbdeminutus
Encoding: 79 -1 79
Width: 161
Flags: HW
HStem: -409 15 -94 15 221 15 536 15
LayerCount: 2
Fore
SplineSet
161 -21.5 m 5
 161 -21.5 140.645 -22.4869 139 -21.5 c 4
 129 -15.5 118.485 -5.80859 79.7246 -5.80859 c 4
 44.3848 -5.80859 23.8652 -21.7686 17.0254 -21.7686 c 5
 7.86523 -21.7686 0.384766 -13.7842 0 -4.66504 c 5
 0 130.972 l 5
 0 157.191 69.7402 163.997 80 163.997 c 4
 91.4004 163.997 161 157.157 161 130.938 c 6
 161 -21.5 l 5
EndSplineSet
Validated: 1
EndChar

StartChar: mnbpdeminutus
Encoding: 80 -1 80
Width: 161
Flags: HW
HStem: 536.058 15 221.058 15 -93.9416 15 -408.942 15
LayerCount: 2
Fore
SplineSet
161 163.559 m 5
 161 11.1201 l 6
 161 -15.0986 91.4004 -21.9385 80 -21.9385 c 4
 69.7402 -21.9385 0 -15.1328 0 11.0859 c 5
 0 146.724 l 5
 0.384766 155.843 7.86523 163.827 17.0254 163.827 c 5
 23.8652 163.827 44.3848 147.867 79.7246 147.867 c 4
 118.485 147.867 129 157.559 139 163.559 c 4
 140.645 164.545 161 163.559 161 163.559 c 5
EndSplineSet
Validated: 1
EndChar

StartChar: mpdeminutus
Encoding: 81 -1 81
Width: 161
Flags: HW
HStem: 536.497 15 221.497 15 -93.503 15 -408.503 15
LayerCount: 2
Fore
SplineSet
161 156.997 m 5
 161 4.55859 l 6
 161 -21.6602 91.4004 -28.5 80 -28.5 c 4
 69.7402 -28.5 0 -21.6943 0 4.52539 c 5
 0 156.792 l 5
 15.5449 156.792 12.8398 156.792 22 156.792 c 5
 28.8398 156.792 44.3848 141.306 79.7246 141.306 c 4
 118.485 141.306 130.5 155.997 139 156.997 c 4
 140.905 157.221 161 156.997 161 156.997 c 5
EndSplineSet
EndChar

StartChar: mpdeminutus#Cavum
Encoding: 82 -1 82
Width: 161
Flags: HW
HStem: -476.55 17.1 -117.45 17.1 241.65 17.1 600.75 17.1
LayerCount: 2
Fore
SplineSet
38.6064 117.417 m 1
 43.1211 117.417 56.6641 112.884 79.9883 112.884 c 0
 105.57 112.884 116.104 117.417 122.122 117.417 c 0
 128.143 117.417 133.63 112.149 133.63 106.131 c 2
 133.63 23.6309 l 2
 133.63 6.32617 87.6943 1.81152 80.1699 1.81152 c 0
 73.3984 1.81152 27.3701 6.30371 27.3701 23.6084 c 1
 27.3701 106.129 l 1
 27.624 112.147 32.5615 117.417 38.6064 117.417 c 1
EndSplineSet
EndChar

StartChar: msdeminutus
Encoding: 83 -1 83
Width: 161
Flags: HW
HStem: 536.058 15 221.058 15 -93.9416 15 -408.942 15
LayerCount: 2
Fore
SplineSet
161 163.559 m 1
 161 11.1201 l 2
 161 -15.0986 91.4004 -21.9385 80 -21.9385 c 0
 73.5266 -21.9385 43.3739 -19.2291 22 -10.6437 c 1
 22 -25 22 -21 22 -34.5 c 1
 5 -34.5 9.5 -34.5 0 -34.5 c 1
 0 146.724 l 1
 0.384766 155.843 7.86523 163.827 17.0254 163.827 c 1
 23.8652 163.827 44.3848 147.867 79.7246 147.867 c 0
 118.485 147.867 129 157.559 139 163.559 c 0
 140.645 164.545 161 163.559 161 163.559 c 1
EndSplineSet
EndChar

StartChar: Natural
Encoding: 84 -1 84
Width: 141
VWidth: 1129
Flags: HW
HStem: -476.34 17.1 -117.24 17.1 241.86 17.1 600.96 17.1
LayerCount: 2
Fore
SplineSet
13.6797 288.92 m 0
 22.7998 288.92 27.3594 269.54 27.3594 257 c 2
 27.3594 133.88 l 1
 114.776 181.818 l 1
 115.916 192.078 120.477 203.478 127.316 203.478 c 0
 136.437 203.478 140.996 184.098 140.996 172.698 c 2
 140.996 -112.302 l 2
 140.996 -124.842 136.437 -144.222 127.316 -144.222 c 0
 118.196 -144.222 113.637 -124.842 113.637 -112.302 c 2
 113.637 10.8184 l 1
 26.2197 -37.1201 l 1
 25.0801 -47.3799 20.5195 -58.7793 13.6797 -58.7793 c 0
 4.55957 -58.7793 0 -39.3994 0 -28 c 2
 0 257 l 2
 0 269.54 4.55957 288.92 13.6797 288.92 c 0
113.637 119.118 m 1
 27.3594 71.1807 l 5
 27.3594 25.5801 l 1
 113.637 73.5176 l 1
 113.637 119.118 l 1
EndSplineSet
Validated: 1
EndChar

StartChar: NaturalHole
Encoding: 85 -1 85
Width: 141
VWidth: 1129
Flags: HW
HStem: -409 15 -94 15 221 15 536 15
LayerCount: 2
Fore
SplineSet
117.951 123.795 m 5
 117.951 73.6348 l 5
 23.0459 20.9033 l 5
 23.0459 71.0635 l 5
 117.951 123.795 l 5
EndSplineSet
Validated: 1
EndChar

StartChar: OriscusDeminutus
Encoding: 86 -1 86
Width: 192
Flags: HW
HStem: -473.822 17.1 -114.722 17.1 244.378 17.1 603.478 17.1
LayerCount: 2
Fore
SplineSet
118 -65 m 1
 115.927 -65 112 -61.5 113.493 -55.9141 c 0
 115.118 -49.836 145 -27 153.5 -1.5 c 0
 159.286 15.8567 155.746 24 138 24 c 1
 93.5322 23.4609 87.9128 -28.0942 59.7598 -27.9463 c 1
 34.6807 -27.9463 13.0205 -7.42578 6.18066 19.9336 c 0
 2.75977 37.0342 0.0136719 64.3848 0.0136719 82.625 c 0
 0.0136719 100.865 3.90039 162.435 15.2998 162.435 c 0
 25.5605 162.435 17.5801 128.234 51.7803 128.234 c 0
 82.5605 128.234 101.94 161.294 132.721 161.294 c 0
 158.94 161.294 179.46 140.774 186.3 113.414 c 0
 190.86 96.3135 192 68.9541 192 50.7139 c 1
 191.193 -22.9396 136.5 -67 118 -65 c 1
EndSplineSet
Validated: 33
EndChar

StartChar: OriscusDeminutus#Cavum
Encoding: 87 -1 87
Width: 192
Flags: HW
LayerCount: 2
Fore
SplineSet
148.205 50.5576 m 4
 127.914 49.9361 117.71 49.5576 104.398 42.8135 c 4
 83.9834 32.4707 89.0654 30.332 67.3584 8.33203 c 4
 55.3809 -3.80762 39.5762 16.2861 34.9248 34.8906 c 4
 32.5986 46.5195 30.7314 65.1172 30.7314 77.5205 c 4
 30.7314 89.9238 33.375 102.792 41.126 102.792 c 4
 48.1035 102.792 55.5781 102.008 68.9326 104.535 c 4
 93.3467 109.155 104.042 128.016 124.973 131.016 c 4
 142.621 133.545 152.755 117.062 157.406 98.457 c 4
 160.507 86.8291 161.282 79.2246 161.282 66.8213 c 4
 161.282 54.418 155.919 50.7939 148.205 50.5576 c 4
EndSplineSet
EndChar

StartChar: p2base
Encoding: 88 -1 88
Width: 161
Flags: W
HStem: 536.228 15 221.228 15 -93.7716 15 -408.772 15
LayerCount: 2
Fore
SplineSet
161 163.729 m 5
 161 11.29 l 6
 161 -14.9287 91.4004 -21.7686 80 -21.7686 c 4
 69.7402 -21.7686 0 -14.9629 0 11.2568 c 5
 0 146.894 l 5
 0.384766 156.013 7.86523 163.997 17.0254 163.997 c 5
 23.8652 163.997 44.3848 148.037 79.7246 148.037 c 4
 118.485 148.037 130.5 162.729 139 163.729 c 4
 140.905 163.952 161 163.729 161 163.729 c 5
EndSplineSet
Validated: 1
EndChar

StartChar: p2base#Cavum
Encoding: 89 -1 89
Width: 161
Flags: HW
HStem: -476.55 17.1 -117.45 17.1 241.65 17.1 600.75 17.1
LayerCount: 2
Fore
SplineSet
38.6064 123.417 m 1
 43.1211 123.417 56.6641 118.884 79.9883 118.884 c 0
 105.57 118.884 116.104 123.417 122.122 123.417 c 0
 128.143 123.417 133.63 118.149 133.63 112.131 c 2
 133.63 29.6309 l 2
 133.63 12.3262 87.6943 7.81152 80.1699 7.81152 c 0
 73.3984 7.81152 27.3701 12.3037 27.3701 29.6084 c 1
 27.3701 112.129 l 1
 27.624 118.147 32.5615 123.417 38.6064 123.417 c 1
EndSplineSet
EndChar

StartChar: pesdeminutus
Encoding: 90 -1 90
Width: 161
Flags: HW
HStem: 536.228 15 221.228 15 -93.7716 15 -408.772 15
LayerCount: 2
Fore
SplineSet
161 163.729 m 5
 161 11.29 l 6
 161 -14.9287 91.4004 -21.7686 80 -21.7686 c 4
 69.7402 -21.7686 0 -14.9629 0 11.2568 c 5
 0 146.894 l 5
 0.384766 156.013 7.86523 163.997 17.0254 163.997 c 5
 23.8652 163.997 44.3848 148.037 79.7246 148.037 c 4
 118.485 148.037 130.5 162.729 139 163.729 c 4
 140.905 163.952 161 163.729 161 163.729 c 5
EndSplineSet
EndChar

StartChar: pesdeminutus_op
Encoding: 91 -1 91
Width: 161
Flags: HW
HStem: 536.228 15 221.228 15 -93.7716 15 -408.772 15
LayerCount: 2
Fore
SplineSet
0 146.894 m 1
 0.0078125 204.499 l 1
 0.0078125 204.499 18.5 203.872 22.125 201.372 c 1
 22.0625 162.629 l 1
 31.742 158.763 50.7532 148.037 79.7246 148.037 c 0
 118.485 148.037 130.5 162.729 139 163.729 c 0
 140.905 163.952 161 163.729 161 163.729 c 1
 161 11.29 l 2
 161 -14.9287 91.4004 -21.7686 80 -21.7686 c 0
 69.7402 -21.7686 0 -14.9629 0 11.2568 c 1
 0 146.894 l 1
EndSplineSet
Validated: 1
EndChar

StartChar: PesOneNothing
Encoding: 92 -1 92
Width: 161
Flags: HW
HStem: -409 15 -94 15 221 15 536 15
LayerCount: 2
Fore
SplineSet
0 11.2598 m 2x80
 0.000976562 118.159 l 2x80
 0.380859 127.279 7.87109 135.27 17.0312 135.27 c 0
 23.8711 135.27 44.3809 119.31 79.7207 119.31 c 0
 118.49 119.31 130.5 134 139 135 c 1
 139 162 l 1x40
 129 168 118.49 177.69 79.7207 177.69 c 0
 44.3809 177.69 23.8711 161.73 17.0312 161.73 c 0
 7.87109 161.73 0.380859 169.721 0.000976562 178.831 c 2
 0 299.971 l 2
 0 326.19 69.7402 333 80 333 c 0
 91.4004 333 161 326.16 161 299.94 c 2
 161 145.5 l 1
 161 11.29 l 2
 161 -14.9297 91.4004 -21.7695 80 -21.7695 c 0
 69.7402 -21.7695 0 -14.96 0 11.2598 c 2x80
EndSplineSet
Validated: 1
EndChar

StartChar: PesOneNothing#Cavum
Encoding: 93 -1 93
Width: 161
Flags: HW
HStem: -476.55 17.1 -117.45 17.1 241.65 17.1 600.75 17.1
LayerCount: 2
Fore
SplineSet
38.6064 201.812 m 5
 32.5615 201.812 27.624 207.081 27.3701 213.1 c 5
 27.3701 281.62 l 5
 27.3701 298.925 73.3984 303.417 80.1699 303.417 c 4
 87.6943 303.417 133.63 298.902 133.63 281.598 c 6
 133.63 213.098 l 6
 133.63 207.079 128.143 201.812 122.122 201.812 c 4
 116.104 201.812 105.57 206.345 79.9883 206.345 c 4
 56.6641 206.345 43.1211 201.812 38.6064 201.812 c 5
38.6064 95.417 m 1
 43.1211 95.417 56.6641 90.8838 79.9883 90.8838 c 0
 105.57 90.8838 116.104 95.417 122.122 95.417 c 0
 128.143 95.417 133.63 90.1494 133.63 84.1309 c 2
 133.63 29.6309 l 2
 133.63 12.3262 87.6943 7.81152 80.1699 7.81152 c 0
 73.3984 7.81152 27.3701 12.3037 27.3701 29.6084 c 1
 27.3701 84.1289 l 1
 27.624 90.1475 32.5615 95.417 38.6064 95.417 c 1
EndSplineSet
EndChar

StartChar: PesQuilismaOneNothing
Encoding: 94 -1 94
Width: 161
Flags: HW
HStem: -409 15 -94 15 221 15 536 15
LayerCount: 2
Fore
SplineSet
0 62.3291 m 0x80
 -0 78.2891 2.42285 113.989 16.1025 113.989 c 0
 17.2422 113.989 18.3818 112.85 19.5215 111.71 c 2
 29.7812 101.45 l 1
 33.2012 127.67 38.9014 142.49 44.6016 142.49 c 0
 45.7412 142.49 46.8809 141.351 48.0205 141.351 c 2
 79.9404 117.41 l 1
 82.2207 143.63 89.0605 158.45 94.7607 158.45 c 0
 95.9004 158.45 97.04 157.311 98.1797 157.311 c 2
 122.04 139.551 l 1
 135 139.98 136 154.98 138 164 c 1
 138 172 l 1x40
 128 178 117.49 187.69 78.7207 187.69 c 0
 43.3809 187.69 22.8711 171.73 16.0312 171.73 c 0
 6.87109 171.73 0.379883 179.39 0 188.5 c 2
 0 305.14 l 2
 0 331.359 68.7412 338.5 79.001 338.5 c 0
 90.4014 338.5 161 332.22 161 306 c 2
 160.998 103.33 l 2
 160.998 92 160.998 80.5303 160.998 69.1201 c 0
 160.998 53.1699 157.318 -1.50977 143.639 -1.50977 c 0
 142.499 -1.50977 141.359 -0.370117 141.359 -0.370117 c 1
 110.579 23.5703 l 1
 108.299 -2.64941 101.459 -17.4697 95.7588 -17.4697 c 0
 94.6191 -17.4697 93.4795 -16.3301 92.3398 -16.3301 c 2
 57 11.0303 l 1
 54.7197 -17.4697 47.8799 -33.4297 42.1797 -33.4297 c 0
 41.04 -33.4297 39.9004 -32.29 37.6201 -31.1504 c 2
 12.54 -6.07031 l 2
 4.55957 3.0498 0 34.9697 0 62.3291 c 0x80
EndSplineSet
Validated: 1
EndChar

StartChar: PesQuilismaOneNothing#Cavum
Encoding: 95 -1 95
Width: 161
Flags: HW
HStem: -477.6 17.1 -118.5 17.1 240.6 17.1 599.7 17.1
LayerCount: 2
Fore
SplineSet
49.875 39.7041 m 1
 43.4004 22.5459 43.0293 14.5781 37.7598 9.35938 c 0
 34.7998 6.42773 33.2051 9.94043 30.6035 11.7432 c 1
 25.7959 20.1553 l 2
 23.5703 25.4043 22.125 26.6592 22.125 47.1787 c 0
 22.125 59.1494 21.6895 83.1895 29.9502 83.1895 c 0
 30.8047 83.1895 33.2139 82.7812 34.5156 81.4795 c 2
 40.21 76.7842 l 1
 43.7754 96.4492 50.0508 114.564 54.3252 114.564 c 0
 55.1797 114.564 60.0352 113.709 62.8906 111.709 c 1
 88.8301 91.7539 l 1
 93.54 111.419 96.6699 125.534 100.945 130.534 c 0
 101.502 131.185 105.655 129.679 107.51 127.679 c 1
 122.755 113.999 l 1
 124.8 119.146 124.784 117.078 126.725 122.069 c 0
 127.966 125.263 133.969 124.767 135.985 109.709 c 2
 138.97 83.959 l 2
 139.861 76.2686 139.593 76.876 139.875 68.2725 c 0
 140.266 56.3838 140.115 34.2988 129.855 34.2988 c 0
 129 34.2988 128.145 35.1543 128.145 35.1543 c 1
 100.06 53.1094 l 1
 95.3496 33.4434 94.2197 15.3291 84.9453 15.3291 c 0
 84.0898 15.3291 80.2354 18.1836 79.3799 18.1836 c 1
 49.875 39.7041 l 1
38.6064 209.812 m 1
 32.5615 209.812 27.624 215.081 27.3701 221.1 c 1
 27.3701 289.62 l 1
 27.3701 306.925 73.3984 311.417 80.1699 311.417 c 0
 87.6943 311.417 133.63 306.902 133.63 289.598 c 2
 133.63 221.098 l 2
 133.63 215.079 128.143 209.812 122.122 209.812 c 0
 116.104 209.812 105.57 214.345 79.9883 214.345 c 0
 56.6641 214.345 43.1211 209.812 38.6064 209.812 c 1
EndSplineSet
EndChar

StartChar: porrectus1
Encoding: 96 -1 96
Width: 490
VWidth: 2048
Flags: HW
HStem: -409 15 -94 15 221 15 536 15
LayerCount: 2
Fore
SplineSet
0 -16 m 1
 0 155 l 2
 0 159.739 3.67916 157.34 7 154.75 c 0
 143.49 48.2977 249.871 -40.1758 468 -51.875 c 1
 468 -8.875 468 -51.875 468 -9 c 1
 478.125 -9 485.281 -8.90039 490 -9 c 1
 490 -189 l 2
 490 -191.229 489.69 -190.612 487.76 -190.591 c 0
 254 -188 136.5 -110 0 -16 c 1
EndSplineSet
EndChar

StartChar: porrectus1#Cavum
Encoding: 97 -1 97
Width: 490
VWidth: 2048
Flags: HW
HStem: -409 15 -94 15 221 15 536 15
LayerCount: 2
Fore
SplineSet
460.843 -79.373 m 1
 460.85 -161.774 l 2
 460.85 -163.402 460.624 -162.928 459.215 -162.937 c 0
 288.57 -164.045 140.795 -88.1045 29.1504 -1.48438 c 1
 29.1504 101.346 l 2
 29.1504 104.805 31.8851 103.115 34.2598 101.163 c 0
 134.897 18.4521 245.608 -67.832 460.843 -79.373 c 1
EndSplineSet
EndChar

StartChar: porrectus2
Encoding: 98 -1 98
Width: 575
VWidth: 2048
Flags: HW
HStem: -409 15 -94 15 221 15 536 15
LayerCount: 2
Fore
SplineSet
0 -16 m 1
 0 155 l 2
 0 159.739 4.39911 158.063 7 154.75 c 0
 181.5 -67.5 330 -189 553 -219.875 c 5
 553 -176.875 553 -174.875 553 -132 c 5
 563.125 -132 570.281 -131.9 575 -132 c 5
 575 -357 l 6
 575 -359.229 574.68 -358.787 572.76 -358.591 c 4
 322.5 -333 154.5 -201 0 -16 c 1
EndSplineSet
Validated: 1
EndChar

StartChar: porrectus2#Cavum
Encoding: 99 -1 99
Width: 575
VWidth: 2048
Flags: HW
HStem: -409 15 -94 15 221 15 536 15
LayerCount: 2
Fore
SplineSet
545.375 -248.844 m 1
 545.375 -325.095 l 2
 545.375 -326.722 545.142 -326.4 543.74 -326.256 c 0
 324.05 -303.575 143.41 -154.215 28.625 -10.165 c 1
 28.625 84.665 l 2
 28.625 88.125 31.848 86.9096 33.7354 84.4824 c 0
 138.12 -49.7598 305.585 -221.307 545.375 -248.844 c 1
EndSplineSet
EndChar

StartChar: porrectus3
Encoding: 100 -1 100
Width: 650
VWidth: 2048
Flags: HW
HStem: -409 15 -94 15 221 15 536 15
LayerCount: 2
Fore
SplineSet
0 -16 m 1
 0 155 l 2
 0 159.739 5.08372 158.501 7 154.75 c 0
 130 -86 270 -314 628 -362 c 1
 628 -319 628 -292.875 628 -250 c 1
 638.125 -250 645.281 -249.9 650 -250 c 1
 650 -479 l 2
 650 -481.229 649.661 -480.926 647.76 -480.591 c 0
 202 -402 116 -240 0 -16 c 1
EndSplineSet
Validated: 1
EndChar

StartChar: porrectus3#Cavum
Encoding: 101 -1 101
Width: 650
VWidth: 2048
Flags: HW
HStem: -409 15 -94 15 221 15 536 15
LayerCount: 2
Fore
SplineSet
621.25 -388.455 m 1
 621.25 -446.625 l 2
 621.25 -448.252 621.003 -448.023 619.615 -447.786 c 4
 236.21 -382.415 129.43 -221.154 28.75 -17.6348 c 1
 28.75 59.1953 l 2
 28.75 62.6543 32.5513 61.7955 33.8604 59.0127 c 0
 122.65 -129.734 296.909 -348.415 621.25 -388.455 c 1
EndSplineSet
EndChar

StartChar: porrectus4
Encoding: 102 -1 102
Width: 740
VWidth: 2048
Flags: HW
HStem: -409 15 -94 15 221 15 536 15
LayerCount: 2
Fore
SplineSet
0 -25 m 1
 0 172.5 l 2
 0 177.239 5.27441 176.092 7 172.25 c 0
 134 -110.5 367.502 -459.831 718.002 -536.331 c 5
 718.002 -493.331 718 -492.875 718 -450 c 1
 728.125 -450 735.281 -449.9 740 -450 c 1
 740 -679 l 2
 740 -681.229 739.615 -681.119 737.76 -680.591 c 0
 270 -547.5 75 -217.5 0 -25 c 1
EndSplineSet
Validated: 1
EndChar

StartChar: porrectus4#Cavum
Encoding: 103 -1 103
Width: 740
VWidth: 2048
Flags: HW
HStem: -409 15 -94 15 221 15 536 15
LayerCount: 2
Fore
SplineSet
712.7 -561.173 m 1
 712.7 -644.764 l 2
 712.7 -646.346 712.421 -646.286 711.109 -645.893 c 0
 279 -516.398 87.5498 -184.099 28.2998 -26.4229 c 5
 28.2998 74.8018 l 2
 28.2998 78.166 32.0844 77.3698 33.2695 74.624 c 0
 113.44 -111.128 342.846 -483.858 712.7 -561.173 c 1
EndSplineSet
EndChar

StartChar: porrectus5
Encoding: 104 -1 104
Width: 931
VWidth: 2048
Flags: HW
HStem: -409 15 -94 15 221 15 536 15
LayerCount: 2
Fore
SplineSet
0 -16 m 1
 0 155 l 2
 0 159.739 5.3553 158.627 7 154.75 c 0
 122.5 -117.5 382.5 -591 909 -711 c 1
 909 -668 909 -654.875 909 -612 c 1
 919.125 -612 926.281 -611.9 931 -612 c 1
 931 -841 l 2
 931 -843.229 930.646 -842.992 928.76 -842.591 c 0
 315 -712 70 -240 0 -16 c 1
EndSplineSet
Validated: 1
EndChar

StartChar: porrectus5#Cavum
Encoding: 105 -1 105
Width: 931
VWidth: 2048
Flags: HW
HStem: -409 15 -94 15 221 15 536 15
LayerCount: 2
Fore
SplineSet
902.005 -735.221 m 1
 902.005 -806.811 l 2
 902.005 -808.394 901.746 -808.26 900.415 -807.94 c 0
 293.645 -662.221 83.6953 -186.101 27.9951 -28.0605 c 1
 27.9951 50.3496 l 2
 27.9951 53.7139 31.7588 52.9082 32.9648 50.1719 c 0
 115.97 -138.126 374.19 -621.021 902.005 -735.221 c 1
EndSplineSet
EndChar

StartChar: porrectusflexus1
Encoding: 106 -1 106
Width: 340
VWidth: 2048
Flags: HW
HStem: -409 15 -94 15 221 15 536 15
LayerCount: 2
Fore
SplineSet
0 -16 m 1
 0 155 l 2
 0 159.739 3.67916 157.34 7 154.75 c 0
 143.49 48.2977 204 -6.125 318 -10 c 1
 318 33 318 -33.875 318 9 c 1
 328.125 9 335.281 9.09961 340 9 c 1
 340 -147.125 l 2
 340 -149.354 339.69 -148.775 337.76 -148.716 c 0
 187.5 -144.125 136.5 -110 0 -16 c 1
EndSplineSet
Validated: 1
EndChar

StartChar: porrectusflexus1#Cavum
Encoding: 107 -1 107
Width: 340
VWidth: 2048
Flags: HW
HStem: -409 15 -94 15 221 15 536 15
LayerCount: 2
Fore
SplineSet
311.1 -34.582 m 1
 311.1 -119.553 l 2
 311.1 -121.18 310.874 -120.749 309.465 -120.714 c 0
 174.775 -117.363 129.545 -72.4512 29.9004 -3.83203 c 1
 29.9004 102.998 l 2
 29.9004 106.458 32.6045 104.73 35.0098 102.815 c 0
 132.647 25.1055 192.88 -31.7529 311.1 -34.582 c 1
EndSplineSet
EndChar

StartChar: porrectusflexus2
Encoding: 108 -1 108
Width: 428
VWidth: 2048
Flags: HW
HStem: -409 15 -94 15 221 15 536 15
LayerCount: 2
Fore
SplineSet
0 -16 m 1
 0 155 l 2
 0 159.739 4.76959 158.322 7 154.75 c 0
 98 9 278 -160.625 406 -166 c 1
 406 -123 406 -188.375 406 -145.5 c 5
 416.125 -145.5 423.281 -145.4 428 -145.5 c 5
 428 -295.5 l 2
 428 -297.729 427.688 -297.188 425.76 -297.091 c 0
 265 -289 107 -166 0 -16 c 1
EndSplineSet
Validated: 1
EndChar

StartChar: porrectusflexus2#Cavum
Encoding: 109 -1 109
Width: 428
VWidth: 2048
Flags: HW
HStem: -409 15 -94 15 221 15 536 15
LayerCount: 2
Fore
SplineSet
399.067 -193.65 m 1
 399.08 -266.652 l 2
 399.08 -268.258 398.847 -267.966 397.467 -267.798 c 0
 250.72 -249.973 100.96 -115.413 28.9199 -8.41309 c 1
 28.9199 78.707 l 2
 28.9199 82.1191 32.2503 81.0307 33.96 78.5273 c 0
 99.4805 -17.4131 262.907 -183.78 399.067 -193.65 c 1
EndSplineSet
EndChar

StartChar: porrectusflexus3
Encoding: 110 -1 110
Width: 586
VWidth: 2048
Flags: HW
HStem: -409 15 -94 15 221 15 536 15
LayerCount: 2
Fore
SplineSet
0 -16 m 1
 0 155 l 2
 0 159.739 5.05344 158.485 7 154.75 c 0
 96 -16 328 -284 564 -328.5 c 1
 564 -285.5 564 -350.875 564 -308 c 1
 574.125 -308 581.281 -307.9 586 -308 c 1
 586 -458 l 2
 586 -460.229 585.679 -459.792 583.76 -459.591 c 0
 282 -428 86 -170 0 -16 c 1
EndSplineSet
Validated: 1
EndChar

StartChar: porrectusflexus3#Cavum
Encoding: 111 -1 111
Width: 586
VWidth: 2048
Flags: HW
HStem: -409 15 -94 15 221 15 536 15
LayerCount: 2
Fore
SplineSet
557.03 -353.846 m 1
 557.03 -426.346 l 2
 557.03 -427.929 556.795 -427.677 555.439 -427.476 c 0
 269.19 -385.046 97.0303 -127.865 28.9697 -15.5254 c 1
 28.9697 66.8848 l 2
 28.9697 70.249 32.4818 69.3172 33.9404 66.707 c 0
 82.1299 -19.5254 307.47 -308.251 557.03 -353.846 c 1
EndSplineSet
EndChar

StartChar: porrectusflexus4
Encoding: 112 -1 112
Width: 670
VWidth: 2048
Flags: HW
HStem: -409 15 -94 15 221 15 536 15
LayerCount: 2
Fore
SplineSet
0 -16 m 1
 0 155 l 2
 0 159.739 5.13671 158.527 7 154.75 c 0
 109 -52 374 -402 648 -447.5 c 1
 648 -404.5 648 -469.875 648 -427 c 1
 658.125 -427 665.281 -426.9 670 -427 c 1
 670 -577 l 2
 670 -579.229 669.666 -578.888 667.76 -578.591 c 4
 305 -522 98 -214 0 -16 c 1
EndSplineSet
Validated: 1
EndChar

StartChar: porrectusflexus4#Cavum
Encoding: 113 -1 113
Width: 670
VWidth: 2048
Flags: HW
HStem: -409 15 -94 15 221 15 536 15
LayerCount: 2
Fore
SplineSet
640.5 -474.438 m 1
 640.5 -542.438 l 2
 640.5 -543.999 640.26 -543.792 638.932 -543.553 c 0
 291 -480.938 96.0996 -152.339 28.5 -17.7383 c 1
 28.5 58.9609 l 2
 28.5 62.2783 31.9731 61.3662 33.4004 58.7861 c 0
 111.8 -82.9385 352.7 -424.588 640.5 -474.438 c 1
EndSplineSet
EndChar

StartChar: porrectusflexus5
Encoding: 114 -1 114
Width: 931
VWidth: 2048
Flags: HW
HStem: -409 15 -94 15 221 15 536 15
LayerCount: 2
Fore
SplineSet
0 -16 m 1
 0 155 l 2
 0 159.739 5.3553 158.627 7 154.75 c 0
 122.5 -117.5 382.5 -525 909 -645 c 5
 909 -602 909 -634.875 909 -592 c 5
 919.125 -592 926.281 -591.9 931 -592 c 5
 931 -775 l 6
 931 -777.229 930.646 -776.992 928.76 -776.591 c 4
 315 -646 70 -240 0 -16 c 1
EndSplineSet
Validated: 1
EndChar

StartChar: porrectusflexus5#Cavum
Encoding: 115 -1 115
Width: 931
VWidth: 2048
Flags: HW
HStem: -409 15 -94 15 221 15 536 15
LayerCount: 2
Fore
SplineSet
902.35 -670.639 m 1
 902.35 -738.738 l 2
 902.35 -740.299 902.099 -740.146 900.782 -739.854 c 0
 301.15 -606.438 70.6504 -178.238 27.6504 -28.4385 c 1
 27.6504 48.2617 l 2
 27.6504 51.5791 31.3348 46.7719 32.5498 44.0859 c 0
 117.4 -143.488 388.8 -563.639 902.35 -670.639 c 1
EndSplineSet
EndChar

StartChar: porrectusflexusnb1
Encoding: 116 -1 116
Width: 340
VWidth: 2048
Flags: HW
HStem: -409 15 -94 15 221 15 536 15
LayerCount: 2
Fore
SplineSet
340 3.25 m 5
 340 -143.125 l 6
 340 -145.354 339.69 -144.775 337.76 -144.716 c 4
 187.5 -140.125 136.5 -110 0 -16 c 5
 0 155 l 6
 0 159.739 3.67916 157.34 7 154.75 c 4
 143.49 48.2977 204 -2.125 318 -6 c 5
 334.25 -3.75 336.5 -0.5 340 3.25 c 5
EndSplineSet
EndChar

StartChar: porrectusflexusnb1#Cavum
Encoding: 117 -1 117
Width: 340
VWidth: 2048
Flags: HW
HStem: -409 15 -94 15 221 15 536 15
LayerCount: 2
Fore
SplineSet
311.1 -35.582 m 1
 311.1 -116.553 l 2
 311.1 -118.18 310.874 -117.759 309.465 -117.714 c 0
 174.775 -113.363 129.545 -69.4512 29.9004 -0.832031 c 1
 29.9004 97.998 l 2
 29.9004 101.458 32.5801 99.6994 35.0098 97.8154 c 0
 132.647 22.1055 192.88 -31.7529 311.1 -35.582 c 1
EndSplineSet
EndChar

StartChar: porrectusflexusnb2
Encoding: 118 -1 118
Width: 428
VWidth: 2048
Flags: HW
HStem: -409 15 -94 15 221 15 536 15
LayerCount: 2
Fore
SplineSet
428 -149 m 5
 428 -283.5 l 6
 428 -285.729 427.688 -285.188 425.76 -285.091 c 4
 265 -277 107 -166 0 -16 c 5
 0 155 l 6
 0 159.739 4.76959 158.322 7 154.75 c 4
 98 9 278 -148.625 406 -154 c 5
 422.75 -154.25 424.75 -152.5 428 -149 c 5
EndSplineSet
Validated: 1
EndChar

StartChar: porrectusflexusnb2#Cavum
Encoding: 119 -1 119
Width: 428
VWidth: 2048
Flags: HW
HStem: -409 15 -94 15 221 15 536 15
LayerCount: 2
Fore
SplineSet
399.067 -183.65 m 1
 399.08 -252.652 l 2
 399.08 -254.258 398.846 -253.975 397.467 -253.798 c 0
 250.72 -234.973 101.96 -112.413 28.9199 -6.41309 c 1
 28.9199 73.707 l 2
 28.9199 77.1191 32.2625 76.0388 33.96 73.5273 c 0
 99.4805 -23.4131 262.907 -172.78 399.067 -183.65 c 1
EndSplineSet
EndChar

StartChar: porrectusflexusnb3
Encoding: 120 -1 120
Width: 586
VWidth: 2048
Flags: HW
HStem: -409 15 -94 15 221 15 536 15
LayerCount: 2
Fore
SplineSet
586 -306.5 m 5
 586 -445 l 6
 586 -447.229 585.679 -446.792 583.76 -446.591 c 4
 282 -415 86 -170 0 -16 c 5
 0 155 l 6
 0 159.739 5.05344 158.485 7 154.75 c 4
 96 -16 328 -271 564 -315.5 c 5
 582 -317.75 584.25 -310.25 586 -306.5 c 5
EndSplineSet
Validated: 1
EndChar

StartChar: porrectusflexusnb3#Cavum
Encoding: 121 -1 121
Width: 586
VWidth: 2048
Flags: HW
HStem: -409 15 -94 15 221 15 536 15
LayerCount: 2
Fore
SplineSet
557.03 -345.846 m 1
 557.03 -412.346 l 2
 557.03 -413.929 556.795 -413.672 555.439 -413.476 c 0
 269.19 -372.046 92.0303 -125.865 28.9697 -18.5254 c 1
 28.9697 63.8848 l 2
 28.9697 67.249 32.4189 66.2812 33.9404 63.707 c 0
 83.1299 -19.5254 302.47 -294.251 557.03 -345.846 c 1
EndSplineSet
EndChar

StartChar: porrectusflexusnb4
Encoding: 122 -1 122
Width: 670
VWidth: 2048
Flags: HW
HStem: -409 15 -94 15 221 15 536 15
LayerCount: 2
Fore
SplineSet
670 -434 m 5
 670 -570 l 6
 670 -572.229 669.666 -571.888 667.76 -571.591 c 4
 305 -515 98 -214 0 -16 c 5
 0 155 l 6
 0 159.739 5.13671 158.527 7 154.75 c 4
 109 -52 374 -395 648 -440.5 c 5
 661.75 -442.75 668 -437.75 670 -434 c 5
EndSplineSet
Validated: 1
EndChar

StartChar: porrectusflexusnb4#Cavum
Encoding: 123 -1 123
Width: 670
VWidth: 2048
Flags: HW
HStem: -409 15 -94 15 221 15 536 15
LayerCount: 2
Fore
SplineSet
640.5 -469.438 m 1
 640.5 -536.438 l 2
 640.5 -537.999 640.256 -537.814 638.932 -537.553 c 0
 291 -468.938 101.1 -148.339 28.5 -21.7383 c 1
 28.5 57.9609 l 2
 28.5 61.2783 31.9336 60.3438 33.4004 57.7861 c 0
 111.8 -78.9385 351.7 -415.588 640.5 -469.438 c 1
EndSplineSet
EndChar

StartChar: porrectusflexusnb5
Encoding: 124 -1 124
Width: 931
VWidth: 2048
Flags: HW
HStem: -409 15 -94 15 221 15 536 15
LayerCount: 2
Fore
SplineSet
931 -620.326 m 5
 931 -761 l 6
 931 -763.229 930.646 -762.992 928.76 -762.591 c 4
 315 -632 70 -240 0 -16 c 5
 0 155 l 6
 0 159.739 5.3553 158.627 7 154.75 c 4
 122.5 -117.5 382.5 -511 909 -631 c 5
 919 -633.333 929 -626.667 931 -620.326 c 5
EndSplineSet
Validated: 1
EndChar

StartChar: porrectusflexusnb5#Cavum
Encoding: 125 -1 125
Width: 931
VWidth: 2048
Flags: HW
HStem: -409 15 -94 15 221 15 536 15
LayerCount: 2
Fore
SplineSet
902.35 -658.639 m 1
 902.35 -725.738 l 2
 902.35 -727.299 902.098 -727.148 900.782 -726.854 c 0
 301.15 -592.438 88.6504 -179.238 27.6504 -30.4385 c 1
 27.6504 47.2617 l 2
 27.6504 50.5791 31.2481 45.7314 32.5498 43.0859 c 0
 121.4 -137.488 365.8 -536.639 902.35 -658.639 c 1
EndSplineSet
EndChar

StartChar: Punctum
Encoding: 126 -1 126
Width: 161
Flags: HW
HStem: -476.55 17.1 -117.45 17.1 241.65 17.1 600.75 17.1
LayerCount: 2
Fore
SplineSet
17.0254 -21.7686 m 1
 7.86523 -21.7686 0.384766 -13.7842 0 -4.66504 c 1
 0 130.972 l 1
 0 157.191 69.7402 163.997 80 163.997 c 4
 91.4004 163.997 161 157.157 161 130.938 c 2
 161 -4.66895 l 2
 161 -13.7881 152.685 -21.7686 143.564 -21.7686 c 0
 134.445 -21.7686 118.485 -5.80859 79.7246 -5.80859 c 0
 44.3848 -5.80859 23.8652 -21.7686 17.0254 -21.7686 c 1
EndSplineSet
EndChar

StartChar: Punctum#Cavum
Encoding: 127 -1 127
Width: 161
Flags: HW
HStem: -476.55 17.1 -117.45 17.1 241.65 17.1 600.75 17.1
LayerCount: 2
Fore
SplineSet
38.6064 17.8115 m 1
 32.5615 17.8115 27.624 23.0811 27.3701 29.0996 c 1
 27.3701 111.62 l 1
 27.3701 128.925 73.3984 133.417 80.1699 133.417 c 0
 87.6943 133.417 133.63 128.902 133.63 111.598 c 2
 133.63 29.0977 l 2
 133.63 23.0791 128.143 17.8115 122.122 17.8115 c 0
 116.104 17.8115 105.57 22.3447 79.9883 22.3447 c 0
 56.6641 22.3447 43.1211 17.8115 38.6064 17.8115 c 1
EndSplineSet
EndChar

StartChar: PunctumAscendens
Encoding: 128 -1 128
Width: 161
Flags: HW
HStem: -409 15 -94 15 221 15 536 15
LayerCount: 2
Fore
SplineSet
0 150.708 m 1x80
 6.5 145.208 17.5 139.25 21.5 138.25 c 1
 32.75 133.75 49.4831 133.569 79.7998 133.569 c 0
 111.72 133.569 127.68 170.05 127.68 206.529 c 0
 127.68 214.51 134.521 222.49 143.64 222.49 c 0x40
 152.76 222.49 161 214.46 161 206.479 c 2x40
 161 56 l 2
 161 2.41992 129.96 -49.9707 79.7998 -49.9707 c 0
 59.2803 -49.9707 13.6797 -44.2705 4.56055 -35.1504 c 0
 2.28027 -31.7305 0 -27.1699 0 -23.75 c 2
 0 150.708 l 1x80
EndSplineSet
Validated: 1
EndChar

StartChar: PunctumAscendens#Cavum
Encoding: 129 -1 129
Width: 161
Flags: HW
HStem: -409 15 -94 15 221 15 536 15
LayerCount: 2
Fore
SplineSet
131.215 116.998 m 0
 131.215 49.1963 l 2
 131.215 22.4404 111.66 -17.5654 80.0586 -17.5654 c 0
 67.1318 -17.5654 38.4033 -13.9746 32.6582 -8.22852 c 0
 31.2217 -6.07422 29.7852 -3.20117 29.7852 -1.04688 c 2
 29.7852 98.8623 l 0x80
 30 106.783 39.8096 100.644 44.3301 100.014 c 0
 51.3984 99.0283 60.959 98.0645 80.0586 98.0645 c 0
 115.169 98.0645 124.8 130.383 131.215 116.998 c 0
EndSplineSet
EndChar

StartChar: PunctumAscendens_op
Encoding: 130 -1 130
Width: 161
Flags: HW
HStem: -409 15 -94 15 221 15 536 15
LayerCount: 2
Fore
SplineSet
160.992 359.499 m 1
 161 56 l 2
 161 2.41992 129.96 -49.9707 79.7998 -49.9707 c 0
 59.2803 -49.9707 13.6797 -44.2705 4.56055 -35.1504 c 0
 2.28027 -31.7305 0 -27.1699 0 -23.75 c 2
 0 150.708 l 1x80
 6.5 145.208 17.5 139.25 21.5 138.25 c 1
 32.75 133.75 49.4831 133.569 79.7998 133.569 c 0
 111.72 133.569 139 179.771 139 216.25 c 0
 138.875 356.372 l 1
 142.5 358.872 160.992 359.499 160.992 359.499 c 1
EndSplineSet
Validated: 1
EndChar

StartChar: PunctumAuctusLineBL
Encoding: 131 -1 131
Width: 141
Flags: HW
HStem: -409 15 -94 15 221 15 536 15
LayerCount: 2
Fore
SplineSet
22 14.8174 m 1x40
 22 -13.3333 21.334 -4.66699 21.998 -19.541 c 1
 10 -20 10 -20.6667 0 -19.333 c 1
 0 160.681 l 1
 0 168.681 6 172.681 10 174.681 c 0
 30 180.681 50 183.681 70 183.681 c 0
 114 183.681 141 137.681 141 90.6807 c 2x80
 141 -41.3193 l 2
 141 -48.3193 134 -55.3193 126 -55.3193 c 0
 118 -55.3193 112 -48.3193 112 -41.3193 c 0
 112 -9.31934 98 22.6807 70 22.6807 c 0
 37 22.6807 34.6667 19.3333 22 14.8174 c 1x40
EndSplineSet
Validated: 33
EndChar

StartChar: PunctumAuctusLineBL#Cavum
Encoding: 132 -1 132
Width: 141
Flags: HW
HStem: -409 15 -94 15 221 15 536 15
LayerCount: 2
Fore
SplineSet
112.215 45.4346 m 0
 105.8 32.0498 96.1689 51.3682 61.0586 51.3682 c 0
 51.959 51.3682 51.7998 51.1807 44.3301 49.4189 c 0
 39.8877 48.3711 30 42.6494 29.7852 50.5703 c 0x80
 29.7852 138.479 l 2
 29.7852 140.634 30.687 144.982 32.6582 146.661 c 0
 39.4033 152.407 48.1318 154.998 61.0586 154.998 c 0
 99.6602 154.998 112.215 115.992 112.215 89.2363 c 2
 112.215 45.4346 l 0
EndSplineSet
EndChar

StartChar: PunctumAuctusLineBL_op
Encoding: 133 -1 133
Width: 141
Flags: HW
HStem: -409 15 -94 15 221 15 536 15
LayerCount: 2
Fore
SplineSet
141 90.6807 m 2x80
 141 -224.002 l 1
 141 -224.002 122.508 -223.375 118.883 -220.875 c 1
 118.833 -64.1787 l 0
 118.833 -32.1787 98 22.6807 70 22.6807 c 0
 37 22.6807 34.6667 19.3333 22 14.8174 c 1x40
 22 -13.3333 21.334 -4.66699 21.998 -19.541 c 1
 10 -20 10 -20.6667 0 -19.333 c 1
 0 160.681 l 1
 0 168.681 6 172.681 10 174.681 c 0
 30 180.681 50 183.681 70 183.681 c 0
 114 183.681 141 137.681 141 90.6807 c 2x80
EndSplineSet
Validated: 33
EndChar

StartChar: PunctumDeminutus
Encoding: 134 -1 134
Width: 97
VWidth: 2048
Flags: HW
HStem: -466.54 17.1 -107.44 17.1 251.66 17.1 610.76 17.1
LayerCount: 2
Fore
SplineSet
17.1504 -3.12012 m 4
 8.03027 -3.12012 0.0498047 4.86035 0.0498047 13.9805 c 6
 0.0498047 102.9 l 6
 0.0498047 118.86 27.4102 129.12 47.9297 129.12 c 4
 69.5898 129.12 96.9502 118.86 96.9502 102.9 c 6
 96.9502 13.9805 l 6
 96.9502 4.86035 88.9697 -3.12012 79.8496 -3.12012 c 4
 68.4502 -3.12012 66.1699 6 47.9297 6 c 4
 29.6904 6 27.4102 -3.12012 17.1504 -3.12012 c 4
EndSplineSet
Validated: 1
EndChar

StartChar: PunctumDeminutus#Cavum
Encoding: 135 -1 135
Width: 97
VWidth: 2048
Flags: HW
HStem: -466.54 17.1 -107.44 17.1 251.66 17.1 610.76 17.1
LayerCount: 2
Fore
SplineSet
34.6064 25.8115 m 1
 28.5615 25.8115 23.624 29.0811 23.3701 35.0996 c 1
 23.3701 84.6201 l 1
 23.3701 101.925 41.3984 106.417 48.1699 106.417 c 0
 55.6943 106.417 74.6299 101.902 74.6299 84.5977 c 2
 74.6299 35.0977 l 2
 74.6299 29.0791 69.1426 25.8115 63.1221 25.8115 c 0
 57.1035 25.8115 57.5703 28.3447 47.9883 28.3447 c 0
 42.6641 28.3447 39.1211 25.8115 34.6064 25.8115 c 1
EndSplineSet
EndChar

StartChar: PunctumDescendens
Encoding: 136 -1 136
Width: 161
Flags: HW
HStem: -409 15 -94 15 221 15 536 15
LayerCount: 2
Fore
SplineSet
17.0967 -4.60059 m 0x40
 7.97656 -4.60059 -0.00390625 2.23926 -0.00390625 11.3594 c 2
 0 171.672 l 5
 22 179.001 l 1
 44.7998 185.841 56.9961 188.06 79.7959 188.06 c 0
 129.956 188.06 161 136.18 161 82.5996 c 2x80
 161 -67.8799 l 2
 161 -75.8604 152.756 -84.4014 143.636 -84.4014 c 0
 134.517 -84.4014 127.676 -76.4209 127.676 -68.4404 c 0
 127.676 -31.9609 111.716 4.51953 79.7959 4.51953 c 0
 42.1758 4.51953 22.7959 -4.60059 17.0967 -4.60059 c 0x40
EndSplineSet
Validated: 1
EndChar

StartChar: PunctumDescendens#Cavum
Encoding: 137 -1 137
Width: 161
Flags: HW
HStem: -409 15 -94 15 221 15 536 15
LayerCount: 2
Fore
SplineSet
131.215 21.4346 m 0
 124.8 8.0498 115.169 40.3682 80.0586 40.3682 c 0
 60.959 40.3682 51.3988 39.4039 44.3301 38.4189 c 0
 39.8096 37.7891 30 31.6494 29.7852 39.5703 c 0x80
 29.7852 139.479 l 2
 29.7852 141.634 30.9578 142.708 32.6582 144.661 c 0
 39.4033 152.407 67.1318 155.998 80.0586 155.998 c 0
 111.66 155.998 131.215 115.992 131.215 89.2363 c 2
 131.215 21.4346 l 0
EndSplineSet
EndChar

StartChar: PunctumDescendens_op
Encoding: 138 -1 138
Width: 161
Flags: HW
HStem: -409 15 -94 15 221 15 536 15
LayerCount: 2
Fore
SplineSet
160.992 -224.002 m 1
 160.992 -224.002 142.5 -223.375 138.875 -220.875 c 1
 139 -74.5 l 0
 139 -38.0205 111.716 4.51953 79.7959 4.51953 c 0
 42.1758 4.51953 22.7959 -4.60059 17.0967 -4.60059 c 0x40
 7.97656 -4.60059 -0.00390625 2.23926 -0.00390625 11.3594 c 2
 0 171.672 l 1
 22 179.001 l 1
 44.7998 185.841 56.9961 188.06 79.7959 188.06 c 0
 129.956 188.06 161 136.18 161 82.5996 c 2x80
 161 -67.8799 l 2
 160.992 -224.002 l 1
EndSplineSet
Validated: 1
EndChar

StartChar: PunctumInclinatumAuctus
Encoding: 139 -1 139
Width: 178
Flags: HW
HStem: -472.63 17.1 -113.53 17.1 245.57 17.1 604.67 17.1
LayerCount: 2
Fore
SplineSet
6.64551 -32.4863 m 0
 22.5449 -31.0957 30.8066 -60.126 62.6055 -57.3438 c 0
 67.1475 -56.9463 71.5908 -55.4131 74.8984 -53.9805 c 1
 2.85645 36.9873 l 2
 0.1875 41.3311 -1.54395 48.0469 1.46484 52.8867 c 2
 66.583 171.875 l 2
 68.4561 176.616 72.8008 179.285 77.3428 179.683 c 0
 81.8857 180.08 86.627 178.206 90.4316 173.961 c 2
 174.086 67.9893 l 1
 176.556 65.916 176.854 62.5098 177.053 60.2393 c 0
 177.251 57.9668 177.55 54.5605 175.477 52.0898 c 1
 111.495 -66.7988 l 2
 106.413 -74.1094 88.1992 -88.291 65.4863 -90.2783 c 0
 29.1455 -93.458 -7.60742 -65.7754 -8.99805 -49.876 c 0
 -9.69336 -41.9258 -2.43945 -33.2812 6.64551 -32.4863 c 0
EndSplineSet
Validated: 33
EndChar

StartChar: PunctumInclinatumAuctus#Cavum
Encoding: 140 -1 140
Width: 178
Flags: HW
HStem: -476.247 17.1 -117.147 17.1 241.953 17.1 601.053 17.1
LayerCount: 2
Fore
SplineSet
26.6982 42.4824 m 2
 25.791 44.0195 24.8271 46.3516 24.7168 47.9443 c 0
 24.6055 49.5371 25.2334 51.9805 25.9189 53.6289 c 2
 72.9473 136.11 l 2
 74.3164 139.407 77.3906 141.222 80.5742 141.443 c 0
 83.7578 141.667 87.0547 140.298 89.665 137.28 c 2
 146.766 61.9941 l 1
 148.47 60.5127 148.636 58.125 148.747 56.5322 c 0
 148.858 54.9395 149.167 52.5615 147.686 50.8584 c 1
 101.466 -31.4834 l 2
 99.2998 -34.835 96.2275 -36.6494 93.043 -36.8721 c 0
 89.8594 -37.0947 86.5635 -35.7256 84.748 -32.6523 c 2
 26.6982 42.4824 l 2
EndSplineSet
Validated: 1
EndChar

StartChar: PunctumInclinatumDeminutus
Encoding: 141 -1 141
Width: 112
VWidth: 1131
Flags: HW
HStem: -474.94 17.1 -115.84 17.1 243.26 17.1 602.36 17.1
LayerCount: 2
Fore
SplineSet
3.21289 50.1885 m 5
 1.78027 53.4971 0.445312 55.6689 0.246094 57.9404 c 4
 0.0478516 60.2119 0.885742 63.7178 1.82227 66.0889 c 6
 37.043 134.397 l 6
 40.0527 139.238 44.3965 141.907 48.9395 142.305 c 4
 53.4814 142.702 58.2236 140.828 62.0273 136.584 c 6
 108.819 75.459 l 6
 110.152 73.2861 111.488 71.1143 111.786 67.707 c 4
 111.985 65.4355 111.146 61.9297 110.21 59.5586 c 6
 74.7451 -8.78027 l 6
 71.7354 -13.6211 67.3916 -16.29 62.8486 -16.6875 c 4
 58.3066 -17.085 53.5645 -15.2109 49.7607 -10.9668 c 6
 3.21289 50.1885 l 5
EndSplineSet
Validated: 1
EndChar

StartChar: PunctumInclinatumDeminutus#Cavum
Encoding: 142 -1 142
Width: 112
VWidth: 1131
Flags: HW
HStem: -474.94 17.1 -115.84 17.1 243.26 17.1 602.36 17.1
LayerCount: 2
Fore
SplineSet
27.502 55.9941 m 1
 26.7285 57.7803 26.0078 58.9531 25.9004 60.1797 c 0
 25.793 61.4062 26.2461 63.2998 26.751 64.5801 c 2
 45.7705 101.467 l 2
 47.3955 104.081 49.7412 105.521 52.1943 105.737 c 0
 54.6475 105.951 57.208 104.939 59.2617 102.647 c 2
 84.5293 69.6396 l 2
 85.249 68.4668 85.9707 67.2939 86.1318 65.4541 c 0
 86.2393 64.2275 85.7861 62.334 85.2812 61.0537 c 2
 66.1299 24.1504 l 2
 64.5049 21.5371 62.1592 20.0957 59.7061 19.8809 c 0
 57.2529 19.666 54.6924 20.6787 52.6387 22.9697 c 2
 27.502 55.9941 l 1
EndSplineSet
EndChar

StartChar: PunctumLineBL
Encoding: 143 -1 143
Width: 161
Flags: HW
HStem: -476.55 17.1 -117.45 17.1 241.65 17.1 600.75 17.1
LayerCount: 2
Fore
SplineSet
0 -21.5 m 1
 0 130.938 l 2
 0 157.157 69.5996 163.997 81 163.997 c 0
 91.2598 163.997 161 157.191 161 130.972 c 1
 161 -4.66504 l 1
 160.615 -13.7842 153.135 -21.7686 143.975 -21.7686 c 1
 137.135 -21.7686 116.615 -5.80859 81.2754 -5.80859 c 0
 42.5146 -5.80859 32.5 -13.5 22 -21.5 c 0
 20.4743 -22.6624 0 -21.5 0 -21.5 c 1
EndSplineSet
Validated: 1
EndChar

StartChar: PunctumLineBLBR
Encoding: 144 -1 144
Width: 161
Flags: HW
HStem: -476.55 17.1 -117.45 17.1 241.65 17.1 600.75 17.1
LayerCount: 2
Fore
SplineSet
161 -21.5 m 1
 161 -21.5 140.534 -22.6509 139 -21.5 c 0
 131 -15.5 118.485 -5.80859 79.7246 -5.80859 c 0
 44.3848 -5.80859 33.5 -16.5 22 -21.2949 c 5
 12.8398 -21.2949 15.5449 -21.2949 0 -21.2949 c 1
 0 130.972 l 1
 0 157.191 69.7402 163.997 80 163.997 c 0
 91.4004 163.997 161 157.157 161 130.938 c 2
 161 -21.5 l 1
EndSplineSet
Validated: 1
EndChar

StartChar: PunctumLineBR
Encoding: 145 -1 145
Width: 161
Flags: HW
HStem: -476.55 17.1 -117.45 17.1 241.65 17.1 600.75 17.1
LayerCount: 2
Fore
SplineSet
161 -21.5 m 5
 161 -21.5 140.645 -22.4869 139 -21.5 c 4
 129 -15.5 118.485 -5.80859 79.7246 -5.80859 c 4
 44.3848 -5.80859 23.8652 -21.7686 17.0254 -21.7686 c 5
 7.86523 -21.7686 0.384766 -13.7842 0 -4.66504 c 5
 0 130.972 l 5
 0 157.191 69.7402 163.997 80 163.997 c 4
 91.4004 163.997 161 157.157 161 130.938 c 6
 161 -21.5 l 5
EndSplineSet
Validated: 1
EndChar

StartChar: PunctumLineTL
Encoding: 146 -1 146
Width: 161
Flags: HW
HStem: -476.55 17.1 -117.45 17.1 241.65 17.1 600.75 17.1
LayerCount: 2
Fore
SplineSet
17.0254 -21.7686 m 1
 7.86523 -21.7686 0.384766 -13.7842 0 -4.66504 c 1
 0 152.5 l 5
 22 152.636 0 152.5 22 152.702 c 5
 43.3739 161.288 73.5266 163.997 80 163.997 c 0
 91.4004 163.997 161 157.157 161 130.938 c 2
 161 -4.66895 l 2
 161 -13.7881 152.685 -21.7686 143.564 -21.7686 c 0
 134.445 -21.7686 118.485 -5.80859 79.7246 -5.80859 c 0
 44.3848 -5.80859 23.8652 -21.7686 17.0254 -21.7686 c 1
EndSplineSet
Validated: 1
EndChar

StartChar: PunctumLineTLTR
Encoding: 147 -1 147
Width: 161
Flags: HW
HStem: -476.55 17.1 -117.45 17.1 241.65 17.1 600.75 17.1
LayerCount: 2
Fore
SplineSet
17.0254 -21.7686 m 1
 7.86523 -21.7686 0.384766 -13.7842 0 -4.66504 c 1
 0 152.5 l 1
 22 152.636 0 152.5 22 152.702 c 1
 43.3739 161.288 73.5266 163.997 80 163.997 c 0
 87.1947 163.997 117.569 161.1 139 152.5 c 1
 161 152.455 139 152.455 161 152.5 c 1
 161 -4.66895 l 2
 161 -13.7881 152.685 -21.7686 143.564 -21.7686 c 0
 134.445 -21.7686 118.485 -5.80859 79.7246 -5.80859 c 0
 44.3848 -5.80859 23.8652 -21.7686 17.0254 -21.7686 c 1
EndSplineSet
Validated: 1
EndChar

StartChar: PunctumLineTR
Encoding: 148 -1 148
Width: 161
Flags: HW
HStem: -476.55 17.1 -117.45 17.1 241.65 17.1 600.75 17.1
LayerCount: 2
Fore
SplineSet
143.975 -21.7686 m 5
 137.135 -21.7686 116.615 -5.80859 81.2754 -5.80859 c 4
 42.5146 -5.80859 26.5547 -21.7686 17.4355 -21.7686 c 4
 8.31543 -21.7686 0 -13.7881 0 -4.66895 c 6
 0 130.938 l 6
 0 157.157 69.5996 163.997 81 163.997 c 4
 87.4736 163.997 117.626 161.288 139 152.702 c 5
 161 152.5 139 152.637 161 152.5 c 5
 161 -4.66504 l 5
 160.615 -13.7842 153.135 -21.7686 143.975 -21.7686 c 5
EndSplineSet
Validated: 1
EndChar

StartChar: PunctumSmall
Encoding: 149 -1 149
Width: 151
Flags: HW
HStem: -409 15 -94 15 221 15 536 15
LayerCount: 2
Fore
SplineSet
151 -22 m 5
 151 -22 132 -22 130 -22 c 4
 121 -16 111 -6 75 -6 c 4
 42 -6 22 -22 16 -22 c 5
 7 -22 0 -14 0 -5 c 5
 0 131 l 5
 0 157 65 164 75 164 c 4
 86 164 151 157 151 131 c 6
 151 -22 l 5
EndSplineSet
Validated: 1
EndChar

StartChar: PunctumSmall#Cavum
Encoding: 150 -1 150
Width: 151
Flags: HW
HStem: -476.55 17.1 -117.45 17.1 241.65 17.1 600.75 17.1
LayerCount: 2
Fore
SplineSet
40.6064 17.8115 m 1
 34.5615 17.8115 29.624 23.0811 29.3701 29.0996 c 1
 29.3701 111.62 l 1
 29.3701 128.925 68.3984 133.417 75.1699 133.417 c 0
 82.6943 133.417 121.63 128.902 121.63 111.598 c 2
 121.63 29.0977 l 2
 121.63 23.0791 116.143 17.8115 110.122 17.8115 c 0
 104.104 17.8115 98.5703 22.3447 74.9883 22.3447 c 0
 53.6641 22.3447 45.1211 17.8115 40.6064 17.8115 c 1
EndSplineSet
EndChar

StartChar: queue
Encoding: 151 -1 151
Width: 22
VWidth: 2048
Flags: HW
HStem: -409 15 -94 15 221 15 536 15
LayerCount: 2
Fore
SplineSet
0 -14.5 m 13
 0 3 l 25
 22 3 l 25
 22 -6.5 l 17
 17.5928 -12.2783 8.15723 -12.709 0 -14.5 c 13
EndSplineSet
EndChar

StartChar: queuebase
Encoding: 152 -1 152
Width: 22
VWidth: 2048
Flags: HW
HStem: 64 32<0 1>
VStem: 0 1<64 96>
LayerCount: 2
Fore
SplineSet
0 0 m 25
 0 1 l 25
 22 1 l 29
 22 0 l 29
 0 0 l 25
EndSplineSet
EndChar

StartChar: Quilisma
Encoding: 153 -1 153
Width: 161
Flags: HW
HStem: -477.6 17.1 -118.5 17.1 240.6 17.1 599.7 17.1
LayerCount: 2
Fore
SplineSet
57 11.0342 m 1
 54.7197 -17.4658 47.8799 -33.4258 42.1797 -33.4258 c 0
 41.04 -33.4258 39.9004 -32.2861 37.6201 -31.1465 c 1
 12.54 -6.06641 l 2
 4.56055 3.05371 0 34.9736 0 62.334 c 0
 0 78.2939 3.41992 133.014 17.1006 133.014 c 0
 18.2402 133.014 19.3799 131.874 20.5205 130.734 c 2
 30.7803 120.474 l 1
 34.2002 146.694 39.9004 161.514 45.6006 161.514 c 0
 46.7402 161.514 47.8799 160.374 49.0205 160.374 c 1
 80.9404 136.434 l 1
 83.2197 162.654 90.0605 177.474 95.7598 177.474 c 0
 96.9004 177.474 98.04 176.334 99.1797 176.334 c 1
 120.84 158.094 l 1
 124.26 183.174 129.96 196.854 136.8 196.854 c 0
 142.5 196.854 148.2 183.174 150.48 160.374 c 2
 158.46 103.374 l 2
 159.601 93.1143 161 80.5254 161 69.125 c 4
 161 53.165 157.32 -1.50586 143.64 -1.50586 c 0
 142.5 -1.50586 141.36 -0.366211 141.36 -0.366211 c 1
 110.58 23.5742 l 1
 108.3 -2.64648 101.46 -17.4658 95.7598 -17.4658 c 0
 94.6201 -17.4658 93.4805 -16.3262 92.3398 -16.3262 c 1
 57 11.0342 l 1
EndSplineSet
EndChar

StartChar: Quilisma#Cavum
Encoding: 154 -1 154
Width: 161
Flags: HW
HStem: -477.6 17.1 -118.5 17.1 240.6 17.1 599.7 17.1
LayerCount: 2
Fore
SplineSet
49.875 39.7041 m 1
 43.4004 22.5459 43.0293 14.5781 37.7598 9.35938 c 0
 34.7998 6.42773 33.2051 9.94043 30.6035 11.7432 c 1
 24.7959 30.1553 l 2
 22.5703 35.4043 22.125 43.6592 22.125 64.1787 c 0
 22.125 76.1494 21.6895 100.189 29.9502 100.189 c 0
 30.8047 100.189 33.2139 99.7812 34.5156 98.4795 c 2
 40.21 93.7842 l 1
 43.7754 113.449 50.0508 131.564 54.3252 131.564 c 0
 55.1797 131.564 60.0352 130.709 62.8906 128.709 c 1
 88.8301 108.754 l 1
 93.54 128.419 96.6699 142.534 100.945 147.534 c 0
 101.502 148.185 105.655 146.679 107.51 144.679 c 1
 122.755 130.999 l 1
 125.8 142.146 125.215 138.67 125.725 140.069 c 0
 126.31 141.676 132.971 151.774 134.985 134.709 c 2
 138.97 100.959 l 2
 139.742 93.2568 139.593 93.876 139.875 85.2725 c 0
 140.266 73.3838 140.115 34.2988 129.855 34.2988 c 0
 129 34.2988 128.145 35.1543 128.145 35.1543 c 1
 100.06 53.1094 l 1
 95.3496 33.4434 94.2197 15.3291 84.9453 15.3291 c 0
 84.0898 15.3291 80.2354 18.1836 79.3799 18.1836 c 1
 49.875 39.7041 l 1
EndSplineSet
EndChar

StartChar: QuilismaLineTR
Encoding: 155 -1 155
Width: 161
Flags: HW
HStem: -477.6 17.1 -118.5 17.1 240.6 17.1 599.7 17.1
LayerCount: 2
Fore
SplineSet
57 11.0342 m 1
 54.7197 -17.4658 47.8799 -33.4258 42.1797 -33.4258 c 0
 41.04 -33.4258 39.9004 -32.2861 37.6201 -31.1465 c 1
 12.54 -6.06641 l 2
 4.56055 3.05371 0 34.9736 0 62.334 c 0
 0 78.2939 3.41992 133.014 17.1006 133.014 c 0
 18.2402 133.014 19.3799 131.874 20.5205 130.734 c 2
 30.7803 120.474 l 1
 34.2002 146.694 39.9004 161.514 45.6006 161.514 c 0
 46.7402 161.514 47.8799 160.374 49.0205 160.374 c 1
 80.9404 136.434 l 1
 83.2197 162.654 90.0605 177.474 95.7598 177.474 c 0
 96.9004 177.474 98.04 176.334 99.1797 176.334 c 1
 123.04 158.573 l 1
 136 159 137 174 139 183.023 c 1
 144.699 183.023 148 183 161 182.333 c 1
 161 103.333 l 2
 162.141 93.0732 161 80.5254 161 69.125 c 0
 161 53.165 157.32 -1.50586 143.64 -1.50586 c 0
 142.5 -1.50586 141.36 -0.366211 141.36 -0.366211 c 1
 110.58 23.5742 l 1
 108.3 -2.64648 101.46 -17.4658 95.7598 -17.4658 c 0
 94.6201 -17.4658 93.4805 -16.3262 92.3398 -16.3262 c 1
 57 11.0342 l 1
EndSplineSet
Validated: 33
EndChar

StartChar: rdeminutus
Encoding: 156 -1 156
Width: 97
VWidth: 2048
Flags: HW
HStem: -410.831 15 -95.8305 15 219.17 15 534.169 15
LayerCount: 2
Fore
SplineSet
75 22 m 1
 70.5537 28.4023 67.2598 29.8975 49.0205 29.8975 c 0
 30.7803 29.8975 28.5 20.7773 17.1006 20.7773 c 0
 7.98047 20.7773 0 28.7578 0 37.8779 c 2
 0 126.798 l 2
 0 142.758 27.3604 153.018 49.0205 153.018 c 0
 69.54 153.018 97 142.758 97 126.798 c 2
 97 -21.8418 l 5
 79 -21.8242 94.0127 -21.5742 75 -21.4424 c 1
 75 13.5 75 -11 75 22 c 1
EndSplineSet
Validated: 1
EndChar

StartChar: rdeminutus#Cavum
Encoding: 157 -1 157
Width: 97
VWidth: 2048
Flags: HW
HStem: -466.54 17.1 -107.44 17.1 251.66 17.1 610.76 17.1
LayerCount: 2
Fore
SplineSet
34.6064 49.8115 m 1
 28.5615 49.8115 23.624 53.0811 23.3701 59.0996 c 1
 23.3701 108.62 l 1
 23.3701 125.925 41.3984 130.417 48.1699 130.417 c 0
 55.6943 130.417 74.6299 125.902 74.6299 108.598 c 2
 74.6299 59.0977 l 2
 74.6299 53.0791 69.1426 49.8115 63.1221 49.8115 c 0
 57.1035 49.8115 57.5703 52.3447 47.9883 52.3447 c 0
 42.6641 52.3447 39.1211 49.8115 34.6064 49.8115 c 1
EndSplineSet
EndChar

StartChar: RoundBrace
Encoding: 158 -1 158
Width: 937
VWidth: 2048
Flags: W
HStem: -409 15 -94 15 221 15 536 15
LayerCount: 2
Fore
SplineSet
-1.91563 703.473 m 0
 -1.91563 705.25 -1.33519 707.4 0 710 c 4
 19 747 177.993 895 471 895 c 4
 759.007 895 918 747 937 710 c 4
 938.335 707.4 938.916 705.25 938.916 703.473 c 0
 938.916 695.081 925.968 695 918.439 695 c 2
 918 695 l 6
 909 695 907.881 703.299 899 713 c 4
 780 843 552 864 471 864 c 4
 385 864 157 843 38 713 c 4
 29.1191 703.299 28 695 19 695 c 6
 18.5613 695 l 2
 11.032 695 -1.91563 695.081 -1.91563 703.473 c 0
EndSplineSet
Validated: 1
EndChar

StartChar: RoundBraceDown
Encoding: 159 -1 159
Width: 937
Flags: HW
LayerCount: 2
Fore
SplineSet
-1.91602 246.527 m 0
 -1.916 254.919 11.0322 255 18.5615 255 c 2
 19 255 l 2
 28 255 29.1191 246.701 38 237 c 0
 157 107 385 86 471 86 c 0
 552 86 780 107 899 237 c 0
 907.881 246.701 909 255 918 255 c 2
 918.439 255 l 2
 925.968 255 938.916 254.919 938.916 246.527 c 0
 938.916 244.75 938.335 242.6 937 240 c 0
 918 203 759.007 55 471 55 c 0
 177.993 55 19 203 -3.57437e-08 240 c 0
 -1.33496 242.6 -1.91602 244.75 -1.91602 246.527 c 0
EndSplineSet
Validated: 1
EndChar

StartChar: rqueue
Encoding: 160 -1 160
Width: 22
VWidth: 2048
Flags: HW
HStem: -409 15 -94 15 221 15 536 15
LayerCount: 2
Fore
SplineSet
22 -14.5 m 21
 13.8428 -12.709 4.40723 -12.2783 0 -6.5 c 9
 0 3 l 25
 22 3 l 25
 22 -14.5 l 21
EndSplineSet
EndChar

StartChar: rvbase
Encoding: 161 -1 161
Width: 161
Flags: HW
HStem: -409 15 -94 15 221 15 536 15
LayerCount: 2
Fore
SplineSet
0 -42 m 5
 0 130.938 l 1
 0 157.157 69.5996 163.997 81 163.997 c 0
 91.2598 163.997 161 157.191 161 130.972 c 1
 161 -30.6738 l 1
 143.833 -31 151.333 -30.8333 138.996 -31.0049 c 1
 139 -24 139 -27.8333 139.004 -23.002 c 1
 133.667 -17.8333 116.615 -5.80859 81.2754 -5.80859 c 0
 42.5146 -5.80859 34.6667 -9.33333 22 -21.5 c 1
 22.0071 -42 l 1
 0 -42 l 5
EndSplineSet
EndChar

StartChar: rvirgabase
Encoding: 162 -1 162
Width: 161
Flags: HW
HStem: -409 15 -94 15 221 15 536 15
LayerCount: 2
Fore
SplineSet
22.0117 -40 m 5
 0.00390625 -40 l 1
 0 130.938 l 2
 0 157.157 69.5996 163.997 81 163.997 c 0
 91.2598 163.997 161 157.191 161 130.972 c 1
 161 -4.66504 l 1
 160.615 -13.7842 153.135 -21.7686 143.975 -21.7686 c 1
 137.135 -21.7686 116.615 -5.80859 81.2754 -5.80859 c 0
 42.5146 -5.80859 34.667 -9.33301 22 -21.5 c 1
 22.0117 -40 l 5
EndSplineSet
EndChar

StartChar: Semicirculus
Encoding: 163 -1 163
Width: 124
VWidth: 1606
Flags: HW
HStem: -641.142 23.94 -138.402 23.94 364.338 23.94 867.078 23.94
LayerCount: 2
Fore
SplineSet
95.5166 11.623 m 1
 124.244 11.623 l 1
 124.244 -23.4893 97.1123 -50.623 62 -50.623 c 0
 26.8877 -50.623 -0.244141 -23.4893 -0.244141 11.623 c 1
 28.4834 11.623 l 1
 28.4834 -7.53027 42.8486 -21.8936 62 -21.8936 c 0
 81.1514 -21.8936 95.5166 -7.53027 95.5166 11.623 c 1
EndSplineSet
Validated: 1
EndChar

StartChar: SemicirculusReversus
Encoding: 164 -1 164
Width: 125
VWidth: 1583
Flags: HW
HStem: -664.386 23.94 -161.646 23.94 341.094 23.94 843.834 23.94
LayerCount: 2
Fore
SplineSet
95.7607 -11.6357 m 1
 95.7607 7.51758 81.3955 21.8809 62.2441 21.8809 c 0
 43.0928 21.8809 28.7275 7.51758 28.7275 -11.6357 c 1
 0 -11.6357 l 1
 0 23.4766 27.1318 50.6104 62.2441 50.6104 c 0
 97.3564 50.6104 124.488 23.4766 124.488 -11.6357 c 1
 95.7607 -11.6357 l 1
EndSplineSet
Validated: 1
EndChar

StartChar: Sharp
Encoding: 165 -1 165
Width: 258
VWidth: 2048
Flags: W
HStem: -409 15 -94 15 221 15 536 15
LayerCount: 2
Fore
SplineSet
0.299805 183 m 0
 0.299805 189.6 6.90039 196.2 13.5 196.2 c 0
 14.5996 196.2 20.0996 195.1 23.4004 190.7 c 2
 101.5 93.9004 l 1
 112.5 107.1 l 1
 58.5996 175.3 l 2
 56.4004 177.5 55.2998 179.7 55.2998 183 c 0
 55.2998 189.6 61.9004 196.2 68.5 196.2 c 0
 69.5996 196.2 75.0996 195.1 78.4004 190.7 c 2
 129 128 l 1
 179.6 190.7 l 2
 182.9 195.1 188.4 196.2 189.5 196.2 c 0
 196.1 196.2 202.7 189.6 202.7 183 c 0
 202.7 179.7 201.6 177.5 199.4 175.3 c 2
 145.5 107.1 l 1
 156.5 93.9004 l 1
 234.6 190.7 l 2
 237.9 195.1 243.4 196.2 244.5 196.2 c 0
 251.1 196.2 257.7 189.6 257.7 183 c 0
 257.7 179.7 256.6 177.5 254.4 175.3 c 2
 173 73 l 1
 254.4 -29.2998 l 2
 256.6 -31.5 257.7 -33.7002 257.7 -37 c 0
 257.7 -43.5996 251.1 -50.2002 244.5 -50.2002 c 0
 243.4 -50.2002 237.9 -49.0996 234.6 -44.7002 c 2
 156.5 52.0996 l 1
 145.5 38.9004 l 1
 199.4 -29.2998 l 2
 201.6 -31.5 202.7 -33.7002 202.7 -37 c 0
 202.7 -43.5996 196.1 -50.2002 189.5 -50.2002 c 0
 188.4 -50.2002 182.9 -49.0996 179.6 -44.7002 c 2
 129 18 l 1
 78.4004 -44.7002 l 2
 75.0996 -49.0996 69.5996 -50.2002 68.5 -50.2002 c 0
 61.9004 -50.2002 55.2998 -43.5996 55.2998 -37 c 0
 55.2998 -33.7002 56.4004 -31.5 58.5996 -29.2998 c 2
 112.5 38.9004 l 1
 101.5 52.0996 l 1
 23.4004 -44.7002 l 2
 20.0996 -49.0996 14.5996 -50.2002 13.5 -50.2002 c 0
 6.90039 -50.2002 0.299805 -43.5996 0.299805 -37 c 0
 0.299805 -33.7002 1.40039 -31.5 3.59961 -29.2998 c 2
 85 73 l 1
 3.59961 175.3 l 2
 1.40039 177.5 0.299805 179.7 0.299805 183 c 0
129 58.7002 m 5
 140 73 l 5
 129 87.2998 l 5
 118 73 l 5
 129 58.7002 l 5
EndSplineSet
Validated: 1
EndChar

StartChar: SharpHole
Encoding: 166 -1 166
Width: 258
VWidth: 2048
Flags: W
HStem: -409 15 -94 15 221 15 536 15
LayerCount: 2
Fore
SplineSet
129 57.2705 m 5
 116.9 73 l 5
 129 88.7295 l 5
 141.1 73 l 5
 129 57.2705 l 5
EndSplineSet
Validated: 1
EndChar

StartChar: Stropha
Encoding: 167 -1 167
Width: 169
Flags: HW
HStem: -466.26 17.1 -107.16 17.1 251.94 17.1 611.04 17.1
LayerCount: 2
Fore
SplineSet
68.4004 192.621 m 2
 70.6807 197.182 75.2402 199.461 79.8008 199.461 c 0
 83.2207 199.461 84.5 199.321 87.7803 197.041 c 1
 90.0605 196.041 91.2002 193.762 92.3408 192.621 c 2
 166.721 79.7578 l 1
 169.001 77.4775 169.001 74.0576 169.001 71.7773 c 0
 169.001 69.4971 169.001 66.0771 166.721 63.7969 c 1
 92.3408 -49.0586 l 2
 90.0605 -52.4785 86.6406 -54.7588 82.0801 -55.8984 c 1
 79.8008 -55.8984 l 2
 77.5205 -55.8984 74.1006 -54.7588 71.8203 -52.4785 c 1
 70.6807 -52.4785 69.54 -50.1992 68.4004 -49.0586 c 2
 55.8604 -29.6787 l 1
 60.4199 -30.8184 63.8408 -29.6787 67.2607 -27.3984 c 0
 74.1006 -22.8389 76.3799 -11.4385 72.96 2.24121 c 0
 70.6807 15.9209 63.8408 33.0215 52.4404 47.8408 c 0
 42.1807 63.8008 29.6406 76.3408 17.1006 83.1816 c 0
 10.2607 86.6016 4.56055 88.8809 0 90.0215 c 1
 68.4004 192.621 l 2
EndSplineSet
EndChar

StartChar: Stropha#Cavum
Encoding: 168 -1 168
Width: 169
Flags: HW
HStem: -466.26 17.1 -107.16 17.1 251.94 17.1 611.04 17.1
LayerCount: 2
Fore
SplineSet
101.603 15.3682 m 1
 100.024 14.5088 99.0713 14.5088 96.7998 17.1621 c 1
 96.0037 18.343 96.4004 20.5654 93.0059 29.5576 c 1
 90.2002 38.1064 84.5762 50.3525 77.9775 59.5527 c 0
 70.7676 69.6045 63.6006 77.9658 52.0381 87.9639 c 0
 48.3939 91.115 42.4004 95.3652 43.2656 99.2725 c 0
 74.3574 147.91 l 2
 76.0869 150.615 78.666 152.22 81.54 152.22 c 0
 83.6943 152.22 84.7361 151.556 86.958 150.111 c 1
 88.1279 148.936 88.7217 148.629 89.4395 147.91 c 2
 136.3 76.8066 l 1
 137.735 75.3701 137.735 73.2158 137.735 71.7783 c 0
 137.735 70.3418 137.735 68.1875 136.3 66.751 c 1
 107.439 23.6523 l 2
 106.003 21.498 107.627 23.3906 101.603 15.3682 c 1
EndSplineSet
EndChar

StartChar: StrophaAucta
Encoding: 169 -1 169
Width: 168
Flags: HW
HStem: -472.609 17.1 -113.509 17.1 245.591 17.1 604.691 17.1
LayerCount: 2
Fore
SplineSet
-9.87012 -24.1875 m 0
 6.08984 -24.1875 11.79 -53.8271 43.71 -53.8271 c 0
 112.11 -53.8271 48.2695 64.7324 -0.75 71.5723 c 1
 67.6504 174.173 l 2
 69.9297 178.733 74.4902 181.013 79.0498 181.013 c 0
 83.6104 181.013 88.1699 178.733 91.5898 174.173 c 2
 165.69 61.3125 l 1
 167.97 59.0322 167.97 55.6123 167.97 53.332 c 0
 167.97 51.0527 167.97 47.6328 165.69 45.3525 c 1
 91.5898 -67.5078 l 2
 80.1904 -83.4678 64.2305 -90.3076 47.1299 -90.3076 c 0
 3.80957 -90.3076 -26.9697 -50.4072 -26.9697 -40.1475 c 0
 -26.9697 -32.168 -18.9902 -24.1875 -9.87012 -24.1875 c 0
EndSplineSet
Validated: 33
EndChar

StartChar: StrophaAucta#Cavum
Encoding: 170 -1 170
Width: 168
Flags: HW
HStem: -466.26 17.1 -107.16 17.1 251.94 17.1 611.04 17.1
LayerCount: 2
Fore
SplineSet
100.603 -1.63184 m 1
 99.0244 -2.49121 99.0713 -2.49121 96.7998 0.162109 c 1
 96.0039 1.34277 96.4004 3.56543 93.0059 12.5576 c 1
 90.2002 21.1064 83.5762 33.3525 76.9775 42.5527 c 0
 69.7676 52.6045 62.6006 61.9658 51.0381 71.9639 c 0
 47.3936 75.1152 41.4004 78.3652 42.2656 82.2725 c 0
 71.3574 128.91 l 2
 73.0566 131.634 75.666 133.22 78.54 133.22 c 0
 80.6943 133.22 81.7363 132.556 83.958 131.111 c 1
 85.1279 129.936 85.7217 129.629 86.4395 128.91 c 2
 133.3 57.8066 l 1
 134.735 56.3701 134.735 54.2158 134.735 52.7783 c 0
 134.735 51.3418 134.735 49.1875 133.3 47.751 c 1
 106.439 6.65234 l 2
 105.003 4.49805 106.627 6.39062 100.603 -1.63184 c 1
EndSplineSet
EndChar

StartChar: StrophaAuctaLongtail
Encoding: 171 -1 171
Width: 168
Flags: HW
HStem: -472.609 17.1 -113.509 17.1 245.591 17.1 604.691 17.1
LayerCount: 2
Fore
SplineSet
-9.87012 -24.1875 m 0
 6.08984 -24.1875 11.79 -53.8271 43.71 -53.8271 c 0
 112.11 -53.8271 48.2695 64.7324 -0.75 71.5723 c 1
 67.6504 174.173 l 2
 69.9297 178.733 74.4902 181.013 79.0498 181.013 c 0
 83.6104 181.013 88.1699 178.733 91.5898 174.173 c 2
 165.69 61.3125 l 1
 167.97 59.0322 167.97 55.6123 167.97 53.332 c 0
 167.97 51.0527 167.97 47.6328 165.69 45.3525 c 1
 91.5898 -67.5078 l 2
 80.1904 -83.4678 64.2305 -90.3076 47.1299 -90.3076 c 0
 3.80957 -90.3076 -26.9697 -50.4072 -26.9697 -40.1475 c 0
 -26.9697 -32.168 -18.9902 -24.1875 -9.87012 -24.1875 c 0
EndSplineSet
EndChar

StartChar: UpperPesOneNothing
Encoding: 173 -1 173
Width: 161
Flags: HW
HStem: -409 15 -94 15 221 15 536 15
LayerCount: 2
Fore
SplineSet
161 11.1201 m 2
 161 -15.0986 91.4004 -21.9385 80 -21.9385 c 0
 73.5266 -21.9385 43.3739 -19.2291 22 -10.6437 c 1
 22 -25 22 -21 22 -34.5 c 1
 5 -34.5 9.5 -34.5 0 -34.5 c 1
 0.000976562 118.159 l 2x80
 0.380859 127.279 7.87109 135.27 17.0312 135.27 c 0
 23.8711 135.27 44.3809 119.31 79.7207 119.31 c 0
 118.49 119.31 130.5 134 139 135 c 1
 139 162 l 1x40
 129 168 118.49 177.69 79.7207 177.69 c 0
 44.3809 177.69 23.8711 161.73 17.0312 161.73 c 0
 7.87109 161.73 0.380859 169.721 0.000976562 178.831 c 2
 0 299.971 l 2
 0 326.19 69.7402 333 80 333 c 0
 91.4004 333 161 326.16 161 299.94 c 2
 161 145.5 l 1
 161 11.1201 l 2
EndSplineSet
EndChar

StartChar: UpperPesOneNothing#Cavum
Encoding: 174 -1 174
Width: 161
Flags: W
HStem: -476.55 17.1 -117.45 17.1 241.65 17.1 600.75 17.1
LayerCount: 2
Fore
SplineSet
38.6064 201.812 m 5
 32.5615 201.812 27.624 207.081 27.3701 213.1 c 5
 27.3701 281.62 l 5
 27.3701 298.925 73.3984 303.417 80.1699 303.417 c 4
 87.6943 303.417 133.63 298.902 133.63 281.598 c 6
 133.63 213.098 l 6
 133.63 207.079 128.143 201.812 122.122 201.812 c 4
 116.104 201.812 105.57 206.345 79.9883 206.345 c 4
 56.6641 206.345 43.1211 201.812 38.6064 201.812 c 5
38.6064 95.417 m 1
 43.1211 95.417 56.6641 90.8838 79.9883 90.8838 c 0
 105.57 90.8838 116.104 95.417 122.122 95.417 c 0
 128.143 95.417 133.63 90.1494 133.63 84.1309 c 2
 133.63 29.6309 l 2
 133.63 12.3262 87.6943 7.81152 80.1699 7.81152 c 0
 73.3984 7.81152 27.3701 12.3037 27.3701 29.6084 c 1
 27.3701 84.1289 l 1
 27.624 90.1475 32.5615 95.417 38.6064 95.417 c 1
EndSplineSet
EndChar

StartChar: VEpisema
Encoding: 175 -1 175
Width: 36
VWidth: 1384
Flags: HW
HStem: -587.8 21 -146.8 21 294.2 21 735.2 21
LayerCount: 2
Fore
SplineSet
-6 81.4004 m 6
 -6 91.2002 5.2002 99.5996 15 99.5996 c 4
 24.7998 99.5996 36 91.2002 36 81.4004 c 6
 36 -5.40039 l 6
 36 -15.2002 24.7998 -23.5996 15 -23.5996 c 4
 5.2002 -23.5996 -6 -15.2002 -6 -5.40039 c 6
 -6 81.4004 l 6
EndSplineSet
Validated: 1
EndChar

StartChar: VEpisema.circumflexus
Encoding: 176 -1 176
Width: 108
VWidth: 2048
Flags: HW
HStem: -409 15 -94 15 221 15 536 15
LayerCount: 2
Fore
SplineSet
0 -14 m 9
 37 76 l 17
 40.6667 82.3333 45.2422 87.001 54.0029 87 c 0
 63 86.999 68 82 71 76 c 13
 108 -16 l 17
 108 -21.1426 103.333 -22.333 99.002 -23.5 c 0
 90.8721 -25.6895 82.8571 -23.1429 80 -18 c 9
 54 40.999 l 25
 54 40.999 30.6667 -12 28 -18 c 1
 23.166 -24.5 16.5 -25.5 9 -23.5 c 0
 4.59668 -22.3252 0 -18.6667 0 -14 c 9
EndSplineSet
Validated: 1
EndChar

StartChar: virgabase
Encoding: 177 -1 177
Width: 161
Flags: HW
HStem: -409 15 -94 15 221 15 536 15
LayerCount: 2
Fore
SplineSet
138.988 -40 m 5
 139 -21.5 l 1
 126.333 -9.33301 118.485 -5.80859 79.7246 -5.80859 c 0
 44.3848 -5.80859 23.8652 -21.7686 17.0254 -21.7686 c 1
 7.86523 -21.7686 0.384766 -13.7842 0 -4.66504 c 1
 0 130.972 l 1
 0 157.191 69.7402 163.997 80 163.997 c 0
 91.4004 163.997 161 157.157 161 130.938 c 2
 160.996 -40 l 1
 138.988 -40 l 5
EndSplineSet
EndChar

StartChar: VirgaBaseLineBL
Encoding: 178 -1 178
Width: 161
Flags: W
HStem: -409 15 -94 15 221 15 536 15
LayerCount: 2
Fore
SplineSet
0 -42 m 5
 0 130.938 l 1
 0 157.157 69.5996 163.997 81 163.997 c 0
 91.2598 163.997 161 157.191 161 130.972 c 1
 161 -30.6738 l 1
 143.833 -31 151.333 -30.8333 138.996 -31.0049 c 1
 139 -24 139 -27.8333 139.004 -23.002 c 1
 133.667 -17.8333 116.615 -5.80859 81.2754 -5.80859 c 0
 42.5146 -5.80859 34.6667 -9.33333 22 -21.5 c 1
 22.0071 -42 l 1
 0 -42 l 5
EndSplineSet
EndChar

StartChar: VirgaReversaAscendens_op
Encoding: 179 -1 179
Width: 161
Flags: HW
HStem: -409 15 -94 15 221 15 536 15
LayerCount: 2
Fore
SplineSet
160.992 359.499 m 1
 161 4.55859 l 2
 161 -21.6602 91.4004 -28.5 80 -28.5 c 0
 69.7402 -28.5 0 -21.6943 0 4.52539 c 1
 0.0078125 359.499 l 5
 0.0078125 359.499 18.5 358.872 22.125 356.372 c 5
 22 156.792 l 1
 28.8398 156.792 44.3848 141.306 79.7246 141.306 c 0
 118.485 141.306 130.5 155.997 139 156.997 c 0
 138.875 356.372 l 1
 142.5 358.872 160.992 359.499 160.992 359.499 c 1
EndSplineSet
Validated: 1
EndChar

StartChar: VirgaReversaAscendens_op#Cavum
Encoding: 180 -1 180
Width: 161
Flags: W
HStem: -476.55 17.1 -117.45 17.1 241.65 17.1 600.75 17.1
LayerCount: 2
Fore
SplineSet
38.6064 117.417 m 1
 43.1211 117.417 56.6641 112.884 79.9883 112.884 c 0
 105.57 112.884 116.104 117.417 122.122 117.417 c 0
 128.143 117.417 133.63 112.149 133.63 106.131 c 2
 133.63 23.6309 l 2
 133.63 6.32617 87.6943 1.81152 80.1699 1.81152 c 0
 73.3984 1.81152 27.3701 6.30371 27.3701 23.6084 c 1
 27.3701 106.129 l 1
 27.624 112.147 32.5615 117.417 38.6064 117.417 c 1
EndSplineSet
EndChar

StartChar: VirgaReversaDescendens_op
Encoding: 181 -1 181
Width: 161
Flags: HW
HStem: -409 15 -94 15 221 15 536 15
LayerCount: 2
Fore
SplineSet
160.992 -224.002 m 5
 160.992 -224.002 142.5 -223.375 138.875 -220.875 c 5
 139 -21.5 l 0
 130.5 -20.5 118.485 -5.80859 79.7246 -5.80859 c 0
 44.3848 -5.80859 28.8398 -21.2949 22 -21.2949 c 1
 22.125 -220.875 l 1
 18.5 -223.375 0.0078125 -224.002 0.0078125 -224.002 c 1
 0 130.972 l 1
 0 157.191 69.7402 163.997 80 163.997 c 0
 91.4004 163.997 161 157.157 161 130.938 c 2
 160.992 -224.002 l 5
EndSplineSet
Validated: 1
EndChar

StartChar: VirgaReversaDescendens_op#Cavum
Encoding: 182 -1 182
Width: 161
Flags: W
HStem: -476.55 17.1 -117.45 17.1 241.65 17.1 600.75 17.1
LayerCount: 2
Fore
SplineSet
38.6064 17.8115 m 1
 32.5615 17.8115 27.624 23.0811 27.3701 29.0996 c 1
 27.3701 111.62 l 1
 27.3701 128.925 73.3984 133.417 80.1699 133.417 c 0
 87.6943 133.417 133.63 128.902 133.63 111.598 c 2
 133.63 29.0977 l 2
 133.63 23.0791 128.143 17.8115 122.122 17.8115 c 0
 116.104 17.8115 105.57 22.3447 79.9883 22.3447 c 0
 56.6641 22.3447 43.1211 17.8115 38.6064 17.8115 c 1
EndSplineSet
EndChar

StartChar: VirgaReversaLongqueueAscendens_op
Encoding: 183 -1 183
Width: 161
Flags: HW
HStem: -409 15 -94 15 221 15 536 15
LayerCount: 2
Fore
SplineSet
0 4.52539 m 1
 0.382812 491.124 l 1
 0.382812 491.124 18.875 490.497 22.5 487.997 c 1
 22 156.792 l 1
 28.8398 156.792 44.3848 141.306 79.7246 141.306 c 0
 118.485 141.306 130.5 155.997 139 156.997 c 0
 138.875 356.372 l 1
 142.5 358.872 160.992 359.499 160.992 359.499 c 1
 161 4.55859 l 2
 161 -21.6602 91.4004 -28.5 80 -28.5 c 0
 69.7402 -28.5 0 -21.6943 0 4.52539 c 1
EndSplineSet
Validated: 1
EndChar

StartChar: VirgaReversaLongqueueDescendens_op
Encoding: 184 -1 184
Width: 161
Flags: HW
HStem: -409 15 -94 15 221 15 536 15
LayerCount: 2
Fore
SplineSet
139 -21.5 m 4
 130.5 -20.5 118.485 -5.80859 79.7246 -5.80859 c 0
 44.3848 -5.80859 28.8398 -21.2949 22 -21.2949 c 1
 22.5 -352.5 l 1
 18.875 -355 0.382812 -355.627 0.382812 -355.627 c 1
 0 130.972 l 1
 0 157.191 69.7402 163.997 80 163.997 c 0
 91.4004 163.997 161 157.157 161 130.938 c 2
 160.992 -224.002 l 1
 160.992 -224.002 142.5 -223.375 138.875 -220.875 c 5
 139 -21.5 l 4
EndSplineSet
Validated: 1
EndChar

StartChar: VirgaReversaOpenqueueAscendens_op
Encoding: 185 -1 185
Width: 161
Flags: W
HStem: -409 15 -94 15 221 15 536 15
LayerCount: 2
Fore
SplineSet
0 4.52539 m 1
 0.382812 491.124 l 1
 0.382812 491.124 18.875 490.497 22.5 487.997 c 1
 22 156.792 l 1
 28.8398 156.792 44.3848 141.306 79.7246 141.306 c 0
 118.485 141.306 130.5 155.997 139 156.997 c 0
 138.875 356.372 l 1
 142.5 358.872 160.992 359.499 160.992 359.499 c 1
 161 4.55859 l 2
 161 -21.6602 91.4004 -28.5 80 -28.5 c 0
 69.7402 -28.5 0 -21.6943 0 4.52539 c 1
EndSplineSet
EndChar

StartChar: VirgaReversaOpenqueueDescendends_op
Encoding: 186 -1 186
Width: 161
Flags: HW
HStem: -476.55 17.1 -117.45 17.1 241.65 17.1 600.75 17.1
LayerCount: 2
Fore
SplineSet
38.6064 17.8115 m 5
 32.5615 17.8115 27.624 23.0811 27.3701 29.0996 c 5
 27.3701 111.62 l 5
 27.3701 128.925 73.3984 133.417 80.1699 133.417 c 4
 87.6943 133.417 133.63 128.902 133.63 111.598 c 6
 133.63 29.0977 l 6
 133.63 23.0791 128.143 17.8115 122.122 17.8115 c 4
 116.104 17.8115 105.57 22.3447 79.9883 22.3447 c 4
 56.6641 22.3447 43.1211 17.8115 38.6064 17.8115 c 5
0 130.972 m 1
 0 157.191 69.7402 163.997 80 163.997 c 0
 91.4004 163.997 161 157.157 161 130.938 c 2
 160.992 -224.002 l 1
 160.992 -224.002 142.5 -223.375 138.875 -220.875 c 1
 139 -21.5 l 0
 130.5 -20.5 118.485 -5.80859 79.7246 -5.80859 c 0
 44.3848 -5.80859 28.8398 -21.2949 22 -21.2949 c 1
 22.248 -168.011 l 17
 17.8408 -173.789 8.40527 -174.22 0.248047 -176.011 c 9
 0 130.972 l 1
EndSplineSet
EndChar

StartChar: Virgula
Encoding: 187 -1 187
Width: 152
VWidth: 2048
Flags: HW
HStem: -409 15 -94 15 221 15 536 15
LayerCount: 2
Fore
SplineSet
152.337 553.333 m 1
 152.337 497.678 67 439 0 418.998 c 1
 46 458 152.5 495.998 120 561.998 c 1
 124.5 530.998 17 510.498 17 572.998 c 1
 17 597.998 49 612.998 75 612.998 c 1
 122.5 613.998 152.337 586.678 152.337 553.333 c 1
EndSplineSet
Validated: 33
EndChar

StartChar: Virgula.2
Encoding: 188 -1 188
Width: 152
VWidth: 1418
Flags: HW
HStem: -1039 15 -724 15 -409 15 -94 15
LayerCount: 2
Fore
SplineSet
152.337 -76.667 m 1
 152.337 -132.322 67 -191 0 -211.002 c 1
 46 -172 152.5 -134.002 120 -68.002 c 1
 124.5 -99.002 17 -119.502 17 -57.002 c 1
 17 -32.002 49 -17.002 75 -17.002 c 1
 122.5 -16.002 152.337 -43.3223 152.337 -76.667 c 1
EndSplineSet
EndChar

StartChar: Virgula.3
Encoding: 189 -1 189
Width: 152
VWidth: 1733
Flags: HW
HStem: -724 15 -409 15 -94 15 221 15
LayerCount: 2
Fore
SplineSet
152.337 238.333 m 1
 152.337 182.678 67 124 0 103.998 c 1
 46 143 152.5 180.998 120 246.998 c 1
 124.5 215.998 17 195.498 17 257.998 c 1
 17 282.998 49 297.998 75 297.998 c 1
 122.5 298.998 152.337 271.678 152.337 238.333 c 1
EndSplineSet
EndChar

StartChar: Virgula.5
Encoding: 190 -1 190
Width: 152
VWidth: 2363
Flags: HW
HStem: -94 15 221 15 536 15 851 15
LayerCount: 2
Fore
SplineSet
152.337 868.333 m 1
 152.337 812.678 67 754 0 733.998 c 1
 46 773 152.5 810.998 120 876.998 c 1
 124.5 845.998 17 825.498 17 887.998 c 1
 17 912.998 49 927.998 75 927.998 c 1
 122.5 928.998 152.337 901.678 152.337 868.333 c 1
EndSplineSet
EndChar
